<?xml version="1.0" encoding="utf-8"?>
<!-- Generator: Adobe Illustrator 17.1.0, SVG Export Plug-In . SVG Version: 6.00 Build 0)  -->
<!DOCTYPE svg PUBLIC "-//W3C//DTD SVG 1.1//EN" "http://www.w3.org/Graphics/SVG/1.1/DTD/svg11.dtd">
<svg version="1.1" id="Layer_1" xmlns="http://www.w3.org/2000/svg" xmlns:xlink="http://www.w3.org/1999/xlink" x="0px" y="0px"
	 viewBox="0 0 612 792" enable-background="new 0 0 612 792" xml:space="preserve">
<ellipse fill="none" stroke="#231F20" stroke-width="9" stroke-miterlimit="10" cx="303.9" cy="390.6" rx="160.8" ry="112.2"/>
<g enable-background="new    ">
	<path fill="#231F20" d="M238.1,375.9c-0.4-0.4-0.6-1-0.6-1.7v-56.4c0-0.7,0.1-1.1,0.4-1.4c0.3-0.3,0.7-0.4,1.3-0.4H262
		c0.7,0,1.2,0.1,1.5,0.3c0.3,0.2,0.6,0.6,0.8,1.2l8.5,25.9c0.2,0.4,0.4,0.7,0.6,0.7c0.2,0,0.3-0.2,0.5-0.7l7.6-25.1
		c0.4-1.6,1.2-2.4,2.2-2.4h23.6c1,0,1.5,0.6,1.5,1.7v56.5c0,0.9-0.2,1.5-0.6,1.8c-0.4,0.4-1.1,0.5-2,0.5h-13.8
		c-0.8,0-1.4-0.2-1.7-0.5s-0.4-0.8-0.4-1.6v-36.6c0-0.4-0.1-0.7-0.3-0.7c-0.3,0-0.5,0.2-0.7,0.7L277.5,375c-0.4,1-1,1.5-2,1.5H267
		c-1,0-1.6-0.5-2-1.5l-11.8-36.5c-0.2-0.5-0.4-0.8-0.6-0.8c-0.3,0-0.4,0.3-0.4,0.9v36.1c0,0.7-0.1,1.2-0.3,1.4
		c-0.2,0.2-0.7,0.4-1.5,0.4h-10.9C239,376.5,238.4,376.3,238.1,375.9z"/>
	<path fill="#231F20" d="M374.3,316.9c0,0.2-0.1,0.5-0.3,0.9l-19.1,30.8c-0.4,0.5-0.6,1.1-0.7,1.8c-0.1,0.7-0.1,1.9-0.1,3.6v20.1
		c0,0.9-0.2,1.5-0.7,1.8c-0.4,0.4-1.1,0.5-2,0.5h-13.7c-0.8,0-1.4-0.2-1.7-0.5s-0.4-0.8-0.4-1.6V353c0-0.8-0.1-1.4-0.2-1.8
		c-0.2-0.5-0.5-1-0.9-1.8l-19.1-31.2c-0.2-0.4-0.3-0.7-0.3-1.1c0-0.8,0.6-1.2,1.8-1.2h16.4c0.8,0,1.3,0.1,1.7,0.3
		c0.4,0.2,0.7,0.7,1.1,1.4l10,18.1c0.3,0.5,0.5,0.8,0.7,0.8c0.3,0,0.5-0.2,0.7-0.7l9.9-18.2c0.3-0.7,0.7-1.2,1.1-1.4
		c0.4-0.2,1-0.3,1.7-0.3H373C373.8,316,374.3,316.3,374.3,316.9z"/>
</g>
<g enable-background="new    ">
	<path fill="#231F20" d="M188.4,387.9c0.3-0.3,0.7-0.5,1.1-0.5H205c1,0,1.5,0.6,1.5,1.7v44.3c0,0.4,0.1,0.7,0.2,0.9
		c0.1,0.2,0.4,0.2,0.8,0.2h24.6c1.3,0,1.9,0.5,1.9,1.6v10c0,0.5-0.2,1-0.5,1.3c-0.4,0.3-0.9,0.5-1.5,0.5h-41.8
		c-0.8,0-1.4-0.2-1.7-0.5s-0.5-0.8-0.5-1.6v-56.6C188,388.6,188.2,388.2,188.4,387.9z"/>
	<path fill="#231F20" d="M247.7,444.9c-4.4-2.5-7.8-6.1-10.2-10.8c-2.4-4.7-3.6-10.1-3.6-16.4s1.2-11.7,3.6-16.4
		c2.4-4.7,5.8-8.4,10.3-10.9c4.4-2.6,9.6-3.9,15.5-3.9c5.8,0,10.9,1.3,15.3,3.9s7.8,6.2,10.2,10.9c2.4,4.7,3.6,10.2,3.6,16.4
		c0,6.2-1.2,11.6-3.6,16.3c-2.4,4.7-5.8,8.3-10.2,10.8s-9.5,3.8-15.4,3.8C257.3,448.7,252.1,447.5,247.7,444.9z M269,434.2
		c1.4-1.2,2.4-3.1,3.1-5.7s1-6.1,1-10.5c0-6.7-0.8-11.6-2.3-14.5s-4-4.4-7.5-4.4s-6.1,1.5-7.6,4.4s-2.3,7.8-2.3,14.5
		c0,4.4,0.3,7.9,1,10.5c0.7,2.6,1.7,4.5,3.1,5.7s3.4,1.8,5.8,1.8C265.7,436,267.6,435.4,269,434.2z"/>
	<path fill="#231F20" d="M311,444.8c-4.3-2.6-7.7-6.2-10-10.9s-3.5-10-3.5-16c0-6.2,1.3-11.7,3.8-16.4c2.5-4.7,6-8.4,10.5-11
		s9.6-3.9,15.4-3.9c4.7,0,8.9,0.9,12.5,2.6c3.7,1.7,6.6,3.9,8.9,6.7c2.3,2.7,3.7,5.6,4.4,8.6c0.2,0.7,0.2,1.2,0.2,1.6
		c0,0.5-0.1,0.8-0.3,1c-0.2,0.2-0.6,0.3-1.1,0.3l-14,2.1c-0.6,0-1-0.1-1.1-0.3c-0.2-0.2-0.3-0.7-0.5-1.3c-0.4-2.5-1.5-4.6-3.1-6.2
		c-1.6-1.6-3.8-2.4-6.5-2.4c-3.2,0-5.6,1.4-7.3,4.1s-2.5,7.4-2.5,14.1c0,7,0.9,11.8,2.7,14.5c1.8,2.7,4.4,4.1,7.8,4.1
		c4.4,0,7.3-1.9,8.8-5.7l0.2-0.7l0.2-0.7c0-0.5-0.3-0.7-0.9-0.7H328c-0.6,0-1-0.1-1.3-0.4c-0.2-0.3-0.4-0.7-0.4-1.4v-7.8
		c0-0.9,0.6-1.4,1.7-1.4l22.8,0.2c1,0,1.7,0.2,2.3,0.7c0.5,0.5,0.8,1.1,0.8,1.8v26.7c0,0.4-0.1,0.7-0.4,1s-0.6,0.4-1,0.4h-3.1
		c-1,0-1.9-0.5-2.6-1.6l-3.3-4.7c-0.1-0.2-0.2-0.2-0.3-0.2c-0.1,0-0.3,0.1-0.6,0.4c-1.4,1.4-2.8,2.5-4,3.4c-1.3,0.9-3,1.7-5.1,2.4
		c-2.1,0.7-4.7,1.1-7.6,1.1C320.4,448.7,315.4,447.4,311,444.8z"/>
	<path fill="#231F20" d="M373.5,444.9c-4.4-2.5-7.8-6.1-10.2-10.8c-2.4-4.7-3.6-10.1-3.6-16.4s1.2-11.7,3.6-16.4
		c2.4-4.7,5.8-8.4,10.3-10.9c4.4-2.6,9.6-3.9,15.5-3.9c5.8,0,10.9,1.3,15.3,3.9s7.8,6.2,10.2,10.9c2.4,4.7,3.6,10.2,3.6,16.4
		c0,6.2-1.2,11.6-3.6,16.3c-2.4,4.7-5.8,8.3-10.2,10.8c-4.4,2.5-9.5,3.8-15.4,3.8C383.1,448.7,377.9,447.5,373.5,444.9z
		 M394.7,434.2c1.4-1.2,2.4-3.1,3.1-5.7s1-6.1,1-10.5c0-6.7-0.8-11.6-2.3-14.5s-4-4.4-7.5-4.4s-6.1,1.5-7.6,4.4s-2.3,7.8-2.3,14.5
		c0,4.4,0.3,7.9,1,10.5c0.7,2.6,1.7,4.5,3.1,5.7c1.4,1.2,3.4,1.8,5.8,1.8C391.4,436,393.3,435.4,394.7,434.2z"/>
</g>
</svg>
