<svg xmlns="http://www.w3.org/2000/svg" viewBox="0 0 82 69.35"><defs><style>.cls-1{fill:#fff;}.cls-2{fill:none;stroke:#000;stroke-miterlimit:10;stroke-width:3px;}</style></defs><title>Asset 3</title><g id="Layer_2" data-name="Layer 2"><g id="Layer_1-2" data-name="Layer 1"><rect class="cls-1" width="82" height="69.35"/><ellipse class="cls-2" cx="41" cy="34.68" rx="36.03" ry="25.54"/><path d="M42.2,18.08V32.6H38.9V22.8l-1.31,9.8H35.24L33.85,23V32.6H30.54V18.08h4.89c.15.87.3,1.9.45,3.08l.54,3.7.86-6.78Z"/><path d="M52.22,18.08l-2.76,9.26V32.6H46V27.34l-2.66-9.26h3.47q.81,4.25.92,5.72.31-2.32,1-5.72Z"/><path d="M26.34,36.45V48.06h2.29V51H22.56V36.45Z"/><path d="M38.36,45a30.72,30.72,0,0,1-.11,3.1,3.42,3.42,0,0,1-2.11,2.82,5.29,5.29,0,0,1-2.15.41,5.57,5.57,0,0,1-2.1-.38,3.55,3.55,0,0,1-1.49-1.15,3.39,3.39,0,0,1-.67-1.66A31,31,0,0,1,29.62,45V42.47c0-1.46,0-2.49.1-3.1a3.55,3.55,0,0,1,.65-1.67,3.46,3.46,0,0,1,1.47-1.15A5.29,5.29,0,0,1,34,36.14a5.52,5.52,0,0,1,2.09.38,3.52,3.52,0,0,1,1.5,1.15,3.48,3.48,0,0,1,.67,1.66,31,31,0,0,1,.11,3.14Zm-3.78-4.77a4.74,4.74,0,0,0-.11-1.3A.46.46,0,0,0,34,38.6a.54.54,0,0,0-.46.23,3.36,3.36,0,0,0-.15,1.35V47a6.64,6.64,0,0,0,.1,1.56.45.45,0,0,0,.48.3.46.46,0,0,0,.49-.34,7.3,7.3,0,0,0,.11-1.63Z"/><path d="M48.89,41.79H45.11V40.48a6.7,6.7,0,0,0-.1-1.56.49.49,0,0,0-.51-.32.47.47,0,0,0-.48.27,4.45,4.45,0,0,0-.13,1.38v7A4.28,4.28,0,0,0,44,48.51a.48.48,0,0,0,.5.31.55.55,0,0,0,.56-.35,4,4,0,0,0,.15-1.36V45.38h-.76v-2.2h4.42V51H46.52l-.35-1a2.58,2.58,0,0,1-1,1,2.77,2.77,0,0,1-1.38.34A3.56,3.56,0,0,1,42,50.81a3.29,3.29,0,0,1-1.27-1.14,3.66,3.66,0,0,1-.53-1.43A15.79,15.79,0,0,1,40.12,46V41.68a14.39,14.39,0,0,1,.22-3,3.09,3.09,0,0,1,1.29-1.73,4.53,4.53,0,0,1,2.75-.79,5.08,5.08,0,0,1,2.75.69,3.2,3.2,0,0,1,1.43,1.61,8.7,8.7,0,0,1,.33,2.73Z"/><path d="M59.44,45c0,1.46,0,2.49-.1,3.1a3.55,3.55,0,0,1-.65,1.67,3.49,3.49,0,0,1-1.46,1.15,5.37,5.37,0,0,1-2.16.41A5.56,5.56,0,0,1,53,50.9a3.52,3.52,0,0,1-1.5-1.15,3.48,3.48,0,0,1-.67-1.66A31,31,0,0,1,50.7,45V42.47a30.72,30.72,0,0,1,.11-3.1,3.54,3.54,0,0,1,.64-1.67,3.46,3.46,0,0,1,1.47-1.15,5.32,5.32,0,0,1,2.15-.41,5.57,5.57,0,0,1,2.1.38,3.49,3.49,0,0,1,1.49,1.15,3.39,3.39,0,0,1,.67,1.66,28.19,28.19,0,0,1,.11,3.14Zm-3.78-4.77a4.36,4.36,0,0,0-.11-1.3.45.45,0,0,0-.46-.28.51.51,0,0,0-.45.23,3.11,3.11,0,0,0-.16,1.35V47a6.64,6.64,0,0,0,.1,1.56.45.45,0,0,0,.48.3.48.48,0,0,0,.5-.34,7.55,7.55,0,0,0,.1-1.63Z"/></g></g></svg>