<?xml version="1.0" encoding="utf-8"?>
<!-- Generator: Adobe Illustrator 17.1.0, SVG Export Plug-In . SVG Version: 6.00 Build 0)  -->
<!DOCTYPE svg PUBLIC "-//W3C//DTD SVG 1.1//EN" "http://www.w3.org/Graphics/SVG/1.1/DTD/svg11.dtd">
<svg version="1.1" id="Layer_1" xmlns="http://www.w3.org/2000/svg" xmlns:xlink="http://www.w3.org/1999/xlink" x="0px" y="0px"
	 viewBox="0 0 612 792" enable-background="new 0 0 612 792" xml:space="preserve">
<ellipse fill="none" stroke="#231F20" stroke-width="9" stroke-miterlimit="10" cx="174.9" cy="390.6" rx="160.8" ry="112.2"/>
<g enable-background="new    ">
	<path fill="#231F20" d="M109.1,375.9c-0.4-0.4-0.6-1-0.6-1.7v-56.4c0-0.7,0.1-1.1,0.4-1.4c0.3-0.3,0.7-0.4,1.3-0.4h22.8
		c0.7,0,1.2,0.1,1.5,0.3c0.3,0.2,0.6,0.6,0.8,1.2l8.5,25.9c0.2,0.4,0.4,0.7,0.6,0.7c0.2,0,0.3-0.2,0.5-0.7l7.6-25.1
		c0.4-1.6,1.2-2.4,2.2-2.4h23.6c1,0,1.5,0.6,1.5,1.7v56.5c0,0.9-0.2,1.5-0.6,1.8c-0.4,0.4-1.1,0.5-2,0.5h-13.8
		c-0.8,0-1.4-0.2-1.7-0.5c-0.3-0.3-0.4-0.8-0.4-1.6v-36.6c0-0.4-0.1-0.7-0.3-0.7c-0.3,0-0.5,0.2-0.7,0.7L148.5,375
		c-0.4,1-1,1.5-2,1.5H138c-1,0-1.6-0.5-2-1.5l-11.8-36.5c-0.2-0.5-0.4-0.8-0.6-0.8c-0.3,0-0.4,0.3-0.4,0.9v36.1
		c0,0.7-0.1,1.2-0.3,1.4c-0.2,0.2-0.7,0.4-1.5,0.4h-10.9C110,376.5,109.4,376.3,109.1,375.9z"/>
	<path fill="#231F20" d="M245.3,316.9c0,0.2-0.1,0.5-0.3,0.9l-19.1,30.8c-0.4,0.5-0.6,1.1-0.7,1.8c-0.1,0.7-0.1,1.9-0.1,3.6v20.1
		c0,0.9-0.2,1.5-0.7,1.8c-0.4,0.4-1.1,0.5-2,0.5h-13.7c-0.8,0-1.4-0.2-1.7-0.5c-0.3-0.3-0.4-0.8-0.4-1.6V353c0-0.8-0.1-1.4-0.2-1.8
		c-0.2-0.5-0.5-1-0.9-1.8l-19.1-31.2c-0.2-0.4-0.3-0.7-0.3-1.1c0-0.8,0.6-1.2,1.8-1.2h16.4c0.8,0,1.3,0.1,1.7,0.3
		c0.4,0.2,0.7,0.7,1.1,1.4l10,18.1c0.3,0.5,0.5,0.8,0.7,0.8c0.3,0,0.5-0.2,0.7-0.7l9.9-18.2c0.3-0.7,0.7-1.2,1.1-1.4
		c0.4-0.2,1-0.3,1.7-0.3h12.8C244.8,316,245.3,316.3,245.3,316.9z"/>
</g>
<g enable-background="new    ">
	<path fill="#231F20" d="M59.4,387.9c0.3-0.3,0.7-0.5,1.1-0.5h15.5c1,0,1.5,0.6,1.5,1.7v44.3c0,0.4,0.1,0.7,0.2,0.9
		c0.1,0.2,0.4,0.2,0.8,0.2h24.6c1.3,0,1.9,0.5,1.9,1.6v10c0,0.5-0.2,1-0.5,1.3c-0.4,0.3-0.9,0.5-1.5,0.5H61.2
		c-0.8,0-1.4-0.2-1.7-0.5c-0.3-0.3-0.5-0.8-0.5-1.6v-56.6C59,388.6,59.2,388.2,59.4,387.9z"/>
	<path fill="#231F20" d="M118.7,444.9c-4.4-2.5-7.8-6.1-10.2-10.8c-2.4-4.7-3.6-10.1-3.6-16.4c0-6.3,1.2-11.7,3.6-16.4
		c2.4-4.7,5.8-8.4,10.3-10.9c4.4-2.6,9.6-3.9,15.5-3.9c5.8,0,10.9,1.3,15.3,3.9c4.4,2.6,7.8,6.2,10.2,10.9
		c2.4,4.7,3.6,10.2,3.6,16.4c0,6.2-1.2,11.6-3.6,16.3c-2.4,4.7-5.8,8.3-10.2,10.8c-4.4,2.5-9.5,3.8-15.4,3.8
		C128.3,448.7,123.1,447.5,118.7,444.9z M140,434.2c1.4-1.2,2.4-3.1,3.1-5.7s1-6.1,1-10.5c0-6.7-0.8-11.6-2.3-14.5
		c-1.5-2.9-4-4.4-7.5-4.4c-3.5,0-6.1,1.5-7.6,4.4s-2.3,7.8-2.3,14.5c0,4.4,0.3,7.9,1,10.5s1.7,4.5,3.1,5.7c1.4,1.2,3.4,1.8,5.8,1.8
		C136.7,436,138.6,435.4,140,434.2z"/>
	<path fill="#231F20" d="M182,444.8c-4.3-2.6-7.7-6.2-10-10.9s-3.5-10-3.5-16c0-6.2,1.3-11.7,3.8-16.4c2.5-4.7,6-8.4,10.5-11
		c4.5-2.6,9.6-3.9,15.4-3.9c4.7,0,8.9,0.9,12.5,2.6c3.7,1.7,6.6,3.9,8.9,6.7c2.3,2.7,3.7,5.6,4.4,8.6c0.2,0.7,0.2,1.2,0.2,1.6
		c0,0.5-0.1,0.8-0.3,1c-0.2,0.2-0.6,0.3-1.1,0.3l-14,2.1c-0.6,0-1-0.1-1.1-0.3c-0.2-0.2-0.3-0.7-0.5-1.3c-0.4-2.5-1.5-4.6-3.1-6.2
		c-1.6-1.6-3.8-2.4-6.5-2.4c-3.2,0-5.6,1.4-7.3,4.1c-1.7,2.7-2.5,7.4-2.5,14.1c0,7,0.9,11.8,2.7,14.5c1.8,2.7,4.4,4.1,7.8,4.1
		c4.4,0,7.3-1.9,8.8-5.7l0.2-0.7l0.2-0.7c0-0.5-0.3-0.7-0.9-0.7H199c-0.6,0-1-0.1-1.3-0.4c-0.2-0.3-0.4-0.7-0.4-1.4v-7.8
		c0-0.9,0.6-1.4,1.7-1.4l22.8,0.2c1,0,1.7,0.2,2.3,0.7c0.5,0.5,0.8,1.1,0.8,1.8v26.7c0,0.4-0.1,0.7-0.4,1c-0.3,0.3-0.6,0.4-1,0.4
		h-3.1c-1,0-1.9-0.5-2.6-1.6l-3.3-4.7c-0.1-0.2-0.2-0.2-0.3-0.2c-0.1,0-0.3,0.1-0.6,0.4c-1.4,1.4-2.8,2.5-4,3.4
		c-1.3,0.9-3,1.7-5.1,2.4c-2.1,0.7-4.7,1.1-7.6,1.1C191.4,448.7,186.4,447.4,182,444.8z"/>
	<path fill="#231F20" d="M244.5,444.9c-4.4-2.5-7.8-6.1-10.2-10.8c-2.4-4.7-3.6-10.1-3.6-16.4c0-6.3,1.2-11.7,3.6-16.4
		c2.4-4.7,5.8-8.4,10.3-10.9c4.4-2.6,9.6-3.9,15.5-3.9c5.8,0,10.9,1.3,15.3,3.9c4.4,2.6,7.8,6.2,10.2,10.9
		c2.4,4.7,3.6,10.2,3.6,16.4c0,6.2-1.2,11.6-3.6,16.3c-2.4,4.7-5.8,8.3-10.2,10.8c-4.4,2.5-9.5,3.8-15.4,3.8
		C254.1,448.7,248.9,447.5,244.5,444.9z M265.7,434.2c1.4-1.2,2.4-3.1,3.1-5.7s1-6.1,1-10.5c0-6.7-0.8-11.6-2.3-14.5
		c-1.5-2.9-4-4.4-7.5-4.4c-3.5,0-6.1,1.5-7.6,4.4s-2.3,7.8-2.3,14.5c0,4.4,0.3,7.9,1,10.5s1.7,4.5,3.1,5.7c1.4,1.2,3.4,1.8,5.8,1.8
		C262.4,436,264.3,435.4,265.7,434.2z"/>
</g>
<g enable-background="new    ">
	<path fill="#010101" d="M366.7,297.6c0-0.5,0.3-0.8,0.8-0.8h29.9c0.5,0,0.8,0.3,0.8,0.8v3.5c0,0.4-0.3,0.7-0.8,0.7h-10.8
		c-0.2,0-0.4,0-0.4,0.1c-0.1,0.1-0.1,0.2-0.1,0.4v34.2c0,0.5-0.3,0.8-0.8,0.8h-5.1c-0.5,0-0.7-0.3-0.7-0.8v-34.1
		c0-0.3,0-0.4-0.1-0.5c-0.1-0.1-0.2-0.1-0.5-0.1h-11.4c-0.5,0-0.8-0.2-0.8-0.7V297.6z"/>
	<path fill="#010101" d="M403.7,329.3c0.8,1.3,1.8,2.4,3.2,3.2c1.3,0.8,2.8,1.2,4.4,1.2c1.7,0,3.2-0.3,4.5-1
		c1.3-0.7,2.5-1.8,3.6-3.2c0.1-0.1,0.2-0.2,0.4-0.2c0.2,0,0.3,0,0.4,0.1l2.8,1.3c0.2,0.1,0.3,0.3,0.3,0.4c0,0.1-0.1,0.3-0.2,0.4
		c-1.5,2.2-3.3,3.9-5.2,4.9c-2,1-4.3,1.5-7.1,1.5c-2.7,0-5.1-0.6-7.3-1.8c-2.1-1.2-3.8-3-5-5.2c-1.2-2.2-1.8-4.8-1.8-7.6
		c0-3,0.6-5.7,1.8-8.1c1.2-2.3,2.9-4.1,5-5.4c2.1-1.3,4.5-1.9,7.1-1.9c2.7,0,5,0.6,7.1,1.8c2,1.2,3.6,2.9,4.7,5.1
		c1.1,2.2,1.7,4.9,1.7,8v0.2c0,0.3,0,0.6-0.1,0.7c-0.1,0.2-0.3,0.2-0.7,0.2h-20.1c-0.4,0-0.5,0.3-0.5,0.9
		C402.6,326.5,403,327.9,403.7,329.3z M417.4,320.5c0.4,0,0.6-0.1,0.7-0.2c0.1-0.1,0.2-0.3,0.2-0.6c0-1.4-0.3-2.7-0.9-4
		c-0.6-1.2-1.5-2.2-2.6-3c-1.1-0.7-2.5-1.1-4.1-1.1c-1.6,0-3.1,0.4-4.3,1.2c-1.2,0.8-2.2,1.9-2.9,3.2c-0.7,1.3-1,2.8-1,4.3
		L417.4,320.5z"/>
	<path fill="#010101" d="M453.9,336.9c0,0.3-0.3,0.4-0.8,0.4h-4.8c-0.6,0-1.1-0.2-1.4-0.6l-7-9.7c-0.2-0.3-0.4-0.5-0.5-0.5
		c-0.1,0-0.3,0.2-0.5,0.5l-7.3,9.7c-0.2,0.4-0.7,0.6-1.3,0.6h-3.2c-0.6,0-0.9-0.2-0.9-0.5c0-0.3,0.1-0.6,0.4-1l9.6-12.2
		c0.2-0.3,0.3-0.5,0.3-0.7c0-0.2-0.1-0.5-0.3-0.7l-9.2-12.6c-0.1-0.2-0.2-0.3-0.2-0.4c0-0.4,0.3-0.7,0.8-0.7h4.5
		c0.3,0,0.6,0,0.8,0.1c0.2,0.1,0.4,0.2,0.5,0.5l6.6,9.1c0.1,0.2,0.3,0.3,0.4,0.3c0.1,0,0.3-0.1,0.4-0.3l6.4-9.1
		c0.1-0.2,0.3-0.4,0.5-0.5c0.2-0.1,0.5-0.1,0.8-0.1h3.5c0.4,0,0.7,0.1,0.7,0.4c0,0.1-0.1,0.3-0.2,0.5l-8.9,11.9
		c-0.2,0.2-0.3,0.4-0.3,0.7c0,0.2,0.1,0.4,0.3,0.7l9.8,13.3C453.8,336.3,453.9,336.6,453.9,336.9z"/>
	<path fill="#010101" d="M466.9,312.5c-0.3,0-0.5,0.2-0.5,0.5V329c0,1.5,0.3,2.6,0.8,3.2c0.6,0.6,1.5,0.9,2.7,0.9h3.5
		c0.4,0,0.7,0.2,0.7,0.7v2.3c0,0.5-0.3,0.8-0.8,0.9c-1.2,0.2-3,0.3-5.5,0.3c-2.4,0-4.2-0.6-5.3-1.7c-1.2-1.1-1.7-2.8-1.7-5.1v-17.2
		c0-0.4-0.2-0.7-0.5-0.7H456c-0.5,0-0.7-0.2-0.7-0.7V309c0-0.4,0.2-0.6,0.7-0.6h4.4c0.3,0,0.4-0.2,0.4-0.5l0.7-8.5
		c0.1-0.5,0.3-0.8,0.7-0.8h3.8c0.5,0,0.7,0.3,0.7,0.9v8.4c0,0.3,0.2,0.5,0.5,0.5h6.5c0.4,0,0.7,0.2,0.7,0.6v2.9
		c0,0.4-0.3,0.7-0.8,0.7H466.9z"/>
	<path fill="#010101" d="M489.6,297.6c0-0.5,0.3-0.8,0.8-0.8h29.9c0.5,0,0.8,0.3,0.8,0.8v3.5c0,0.4-0.3,0.7-0.8,0.7h-10.8
		c-0.2,0-0.4,0-0.4,0.1c-0.1,0.1-0.1,0.2-0.1,0.4v34.2c0,0.5-0.3,0.8-0.8,0.8H503c-0.5,0-0.7-0.3-0.7-0.8v-34.1c0-0.3,0-0.4-0.1-0.5
		c-0.1-0.1-0.2-0.1-0.5-0.1h-11.4c-0.5,0-0.8-0.2-0.8-0.7V297.6z"/>
	<path fill="#010101" d="M526.6,329.3c0.8,1.3,1.8,2.4,3.2,3.2c1.3,0.8,2.8,1.2,4.4,1.2c1.7,0,3.2-0.3,4.5-1
		c1.3-0.7,2.5-1.8,3.6-3.2c0.1-0.1,0.2-0.2,0.4-0.2c0.2,0,0.3,0,0.4,0.1l2.8,1.3c0.2,0.1,0.3,0.3,0.3,0.4c0,0.1-0.1,0.3-0.2,0.4
		c-1.5,2.2-3.3,3.9-5.2,4.9c-2,1-4.3,1.5-7.1,1.5c-2.7,0-5.1-0.6-7.3-1.8c-2.1-1.2-3.8-3-5-5.2c-1.2-2.2-1.8-4.8-1.8-7.6
		c0-3,0.6-5.7,1.8-8.1c1.2-2.3,2.9-4.1,5-5.4c2.1-1.3,4.5-1.9,7.1-1.9c2.7,0,5,0.6,7.1,1.8c2,1.2,3.6,2.9,4.7,5.1
		c1.1,2.2,1.7,4.9,1.7,8v0.2c0,0.3,0,0.6-0.1,0.7c-0.1,0.2-0.3,0.2-0.7,0.2H526c-0.4,0-0.5,0.3-0.5,0.9
		C525.4,326.5,525.8,327.9,526.6,329.3z M540.3,320.5c0.4,0,0.6-0.1,0.7-0.2c0.1-0.1,0.2-0.3,0.2-0.6c0-1.4-0.3-2.7-0.9-4
		c-0.6-1.2-1.5-2.2-2.6-3c-1.1-0.7-2.5-1.1-4.1-1.1c-1.6,0-3.1,0.4-4.3,1.2c-1.2,0.8-2.2,1.9-2.9,3.2c-0.7,1.3-1,2.8-1,4.3
		L540.3,320.5z"/>
	<path fill="#010101" d="M576.8,336.9c0,0.3-0.3,0.4-0.8,0.4h-4.8c-0.6,0-1.1-0.2-1.4-0.6l-7-9.7c-0.2-0.3-0.4-0.5-0.5-0.5
		c-0.1,0-0.3,0.2-0.5,0.5l-7.3,9.7c-0.2,0.4-0.7,0.6-1.3,0.6H550c-0.6,0-0.9-0.2-0.9-0.5c0-0.3,0.1-0.6,0.4-1l9.6-12.2
		c0.2-0.3,0.3-0.5,0.3-0.7c0-0.2-0.1-0.5-0.3-0.7l-9.2-12.6c-0.1-0.2-0.2-0.3-0.2-0.4c0-0.4,0.3-0.7,0.8-0.7h4.5
		c0.3,0,0.6,0,0.8,0.1c0.2,0.1,0.4,0.2,0.5,0.5l6.6,9.1c0.1,0.2,0.3,0.3,0.4,0.3c0.1,0,0.3-0.1,0.4-0.3l6.4-9.1
		c0.1-0.2,0.3-0.4,0.5-0.5c0.2-0.1,0.5-0.1,0.8-0.1h3.5c0.4,0,0.7,0.1,0.7,0.4c0,0.1-0.1,0.3-0.2,0.5l-8.9,11.9
		c-0.2,0.2-0.3,0.4-0.3,0.7c0,0.2,0.1,0.4,0.3,0.7l9.8,13.3C576.6,336.3,576.8,336.6,576.8,336.9z"/>
	<path fill="#010101" d="M589.8,312.5c-0.3,0-0.5,0.2-0.5,0.5V329c0,1.5,0.3,2.6,0.8,3.2c0.6,0.6,1.5,0.9,2.7,0.9h3.5
		c0.4,0,0.7,0.2,0.7,0.7v2.3c0,0.5-0.3,0.8-0.8,0.9c-1.2,0.2-3,0.3-5.5,0.3c-2.4,0-4.2-0.6-5.3-1.7c-1.2-1.1-1.7-2.8-1.7-5.1v-17.2
		c0-0.4-0.2-0.7-0.5-0.7h-4.1c-0.5,0-0.7-0.2-0.7-0.7V309c0-0.4,0.2-0.6,0.7-0.6h4.4c0.3,0,0.4-0.2,0.4-0.5l0.7-8.5
		c0.1-0.5,0.3-0.8,0.7-0.8h3.8c0.5,0,0.7,0.3,0.7,0.9v8.4c0,0.3,0.2,0.5,0.5,0.5h6.5c0.4,0,0.7,0.2,0.7,0.6v2.9
		c0,0.4-0.3,0.7-0.8,0.7H589.8z"/>
</g>
<g enable-background="new    ">
	<path fill="#010101" d="M366.7,353.7c0-0.5,0.3-0.8,0.8-0.8h29.9c0.5,0,0.8,0.3,0.8,0.8v3.5c0,0.4-0.3,0.7-0.8,0.7h-10.8
		c-0.2,0-0.4,0-0.4,0.1c-0.1,0.1-0.1,0.2-0.1,0.4v34.2c0,0.5-0.3,0.8-0.8,0.8h-5.1c-0.5,0-0.7-0.3-0.7-0.8v-34.1
		c0-0.3,0-0.4-0.1-0.5c-0.1-0.1-0.2-0.1-0.5-0.1h-11.4c-0.5,0-0.8-0.2-0.8-0.7V353.7z"/>
	<path fill="#010101" d="M403.7,385.4c0.8,1.3,1.8,2.4,3.2,3.2c1.3,0.8,2.8,1.2,4.4,1.2c1.7,0,3.2-0.3,4.5-1
		c1.3-0.7,2.5-1.8,3.6-3.2c0.1-0.1,0.2-0.2,0.4-0.2c0.2,0,0.3,0,0.4,0.1l2.8,1.3c0.2,0.1,0.3,0.3,0.3,0.4c0,0.1-0.1,0.3-0.2,0.4
		c-1.5,2.2-3.3,3.9-5.2,4.9c-2,1-4.3,1.5-7.1,1.5c-2.7,0-5.1-0.6-7.3-1.8c-2.1-1.2-3.8-3-5-5.2c-1.2-2.2-1.8-4.8-1.8-7.6
		c0-3,0.6-5.7,1.8-8.1c1.2-2.3,2.9-4.1,5-5.4c2.1-1.3,4.5-1.9,7.1-1.9c2.7,0,5,0.6,7.1,1.8c2,1.2,3.6,2.9,4.7,5.1
		c1.1,2.2,1.7,4.9,1.7,8v0.2c0,0.3,0,0.6-0.1,0.7c-0.1,0.2-0.3,0.2-0.7,0.2h-20.1c-0.4,0-0.5,0.3-0.5,0.9
		C402.6,382.6,403,384,403.7,385.4z M417.4,376.6c0.4,0,0.6-0.1,0.7-0.2c0.1-0.1,0.2-0.3,0.2-0.6c0-1.4-0.3-2.7-0.9-4
		c-0.6-1.2-1.5-2.2-2.6-3c-1.1-0.7-2.5-1.1-4.1-1.1c-1.6,0-3.1,0.4-4.3,1.2c-1.2,0.8-2.2,1.9-2.9,3.2c-0.7,1.3-1,2.8-1,4.3
		L417.4,376.6z"/>
	<path fill="#010101" d="M453.9,393c0,0.3-0.3,0.4-0.8,0.4h-4.8c-0.6,0-1.1-0.2-1.4-0.6l-7-9.7c-0.2-0.3-0.4-0.5-0.5-0.5
		c-0.1,0-0.3,0.2-0.5,0.5l-7.3,9.7c-0.2,0.4-0.7,0.6-1.3,0.6h-3.2c-0.6,0-0.9-0.2-0.9-0.5c0-0.3,0.1-0.6,0.4-1l9.6-12.2
		c0.2-0.3,0.3-0.5,0.3-0.7c0-0.2-0.1-0.5-0.3-0.7l-9.2-12.6c-0.1-0.2-0.2-0.3-0.2-0.4c0-0.4,0.3-0.7,0.8-0.7h4.5
		c0.3,0,0.6,0,0.8,0.1c0.2,0.1,0.4,0.2,0.5,0.5l6.6,9.1c0.1,0.2,0.3,0.3,0.4,0.3c0.1,0,0.3-0.1,0.4-0.3l6.4-9.1
		c0.1-0.2,0.3-0.4,0.5-0.5c0.2-0.1,0.5-0.1,0.8-0.1h3.5c0.4,0,0.7,0.1,0.7,0.4c0,0.1-0.1,0.3-0.2,0.5l-8.9,11.9
		c-0.2,0.2-0.3,0.4-0.3,0.7c0,0.2,0.1,0.4,0.3,0.7l9.8,13.3C453.8,392.4,453.9,392.7,453.9,393z"/>
	<path fill="#010101" d="M466.9,368.6c-0.3,0-0.5,0.2-0.5,0.5v15.9c0,1.5,0.3,2.6,0.8,3.2c0.6,0.6,1.5,0.9,2.7,0.9h3.5
		c0.4,0,0.7,0.2,0.7,0.7v2.3c0,0.5-0.3,0.8-0.8,0.9c-1.2,0.2-3,0.3-5.5,0.3c-2.4,0-4.2-0.6-5.3-1.7c-1.2-1.1-1.7-2.8-1.7-5.1v-17.2
		c0-0.4-0.2-0.7-0.5-0.7H456c-0.5,0-0.7-0.2-0.7-0.7v-2.9c0-0.4,0.2-0.6,0.7-0.6h4.4c0.3,0,0.4-0.2,0.4-0.5l0.7-8.5
		c0.1-0.5,0.3-0.8,0.7-0.8h3.8c0.5,0,0.7,0.3,0.7,0.9v8.4c0,0.3,0.2,0.5,0.5,0.5h6.5c0.4,0,0.7,0.2,0.7,0.6v2.9
		c0,0.4-0.3,0.7-0.8,0.7H466.9z"/>
	<path fill="#010101" d="M489.6,353.7c0-0.5,0.3-0.8,0.8-0.8h29.9c0.5,0,0.8,0.3,0.8,0.8v3.5c0,0.4-0.3,0.7-0.8,0.7h-10.8
		c-0.2,0-0.4,0-0.4,0.1c-0.1,0.1-0.1,0.2-0.1,0.4v34.2c0,0.5-0.3,0.8-0.8,0.8H503c-0.5,0-0.7-0.3-0.7-0.8v-34.1c0-0.3,0-0.4-0.1-0.5
		c-0.1-0.1-0.2-0.1-0.5-0.1h-11.4c-0.5,0-0.8-0.2-0.8-0.7V353.7z"/>
	<path fill="#010101" d="M526.6,385.4c0.8,1.3,1.8,2.4,3.2,3.2c1.3,0.8,2.8,1.2,4.4,1.2c1.7,0,3.2-0.3,4.5-1
		c1.3-0.7,2.5-1.8,3.6-3.2c0.1-0.1,0.2-0.2,0.4-0.2c0.2,0,0.3,0,0.4,0.1l2.8,1.3c0.2,0.1,0.3,0.3,0.3,0.4c0,0.1-0.1,0.3-0.2,0.4
		c-1.5,2.2-3.3,3.9-5.2,4.9c-2,1-4.3,1.5-7.1,1.5c-2.7,0-5.1-0.6-7.3-1.8c-2.1-1.2-3.8-3-5-5.2c-1.2-2.2-1.8-4.8-1.8-7.6
		c0-3,0.6-5.7,1.8-8.1c1.2-2.3,2.9-4.1,5-5.4c2.1-1.3,4.5-1.9,7.1-1.9c2.7,0,5,0.6,7.1,1.8c2,1.2,3.6,2.9,4.7,5.1
		c1.1,2.2,1.7,4.9,1.7,8v0.2c0,0.3,0,0.6-0.1,0.7c-0.1,0.2-0.3,0.2-0.7,0.2H526c-0.4,0-0.5,0.3-0.5,0.9
		C525.4,382.6,525.8,384,526.6,385.4z M540.3,376.6c0.4,0,0.6-0.1,0.7-0.2c0.1-0.1,0.2-0.3,0.2-0.6c0-1.4-0.3-2.7-0.9-4
		c-0.6-1.2-1.5-2.2-2.6-3c-1.1-0.7-2.5-1.1-4.1-1.1c-1.6,0-3.1,0.4-4.3,1.2c-1.2,0.8-2.2,1.9-2.9,3.2c-0.7,1.3-1,2.8-1,4.3
		L540.3,376.6z"/>
	<path fill="#010101" d="M576.8,393c0,0.3-0.3,0.4-0.8,0.4h-4.8c-0.6,0-1.1-0.2-1.4-0.6l-7-9.7c-0.2-0.3-0.4-0.5-0.5-0.5
		c-0.1,0-0.3,0.2-0.5,0.5l-7.3,9.7c-0.2,0.4-0.7,0.6-1.3,0.6H550c-0.6,0-0.9-0.2-0.9-0.5c0-0.3,0.1-0.6,0.4-1l9.6-12.2
		c0.2-0.3,0.3-0.5,0.3-0.7c0-0.2-0.1-0.5-0.3-0.7l-9.2-12.6c-0.1-0.2-0.2-0.3-0.2-0.4c0-0.4,0.3-0.7,0.8-0.7h4.5
		c0.3,0,0.6,0,0.8,0.1c0.2,0.1,0.4,0.2,0.5,0.5l6.6,9.1c0.1,0.2,0.3,0.3,0.4,0.3c0.1,0,0.3-0.1,0.4-0.3l6.4-9.1
		c0.1-0.2,0.3-0.4,0.5-0.5c0.2-0.1,0.5-0.1,0.8-0.1h3.5c0.4,0,0.7,0.1,0.7,0.4c0,0.1-0.1,0.3-0.2,0.5l-8.9,11.9
		c-0.2,0.2-0.3,0.4-0.3,0.7c0,0.2,0.1,0.4,0.3,0.7l9.8,13.3C576.6,392.4,576.8,392.7,576.8,393z"/>
	<path fill="#010101" d="M589.8,368.6c-0.3,0-0.5,0.2-0.5,0.5v15.9c0,1.5,0.3,2.6,0.8,3.2c0.6,0.6,1.5,0.9,2.7,0.9h3.5
		c0.4,0,0.7,0.2,0.7,0.7v2.3c0,0.5-0.3,0.8-0.8,0.9c-1.2,0.2-3,0.3-5.5,0.3c-2.4,0-4.2-0.6-5.3-1.7c-1.2-1.1-1.7-2.8-1.7-5.1v-17.2
		c0-0.4-0.2-0.7-0.5-0.7h-4.1c-0.5,0-0.7-0.2-0.7-0.7v-2.9c0-0.4,0.2-0.6,0.7-0.6h4.4c0.3,0,0.4-0.2,0.4-0.5l0.7-8.5
		c0.1-0.5,0.3-0.8,0.7-0.8h3.8c0.5,0,0.7,0.3,0.7,0.9v8.4c0,0.3,0.2,0.5,0.5,0.5h6.5c0.4,0,0.7,0.2,0.7,0.6v2.9
		c0,0.4-0.3,0.7-0.8,0.7H589.8z"/>
</g>
<g enable-background="new    ">
	<path fill="#010101" d="M366.7,409.8c0-0.5,0.3-0.8,0.8-0.8h29.9c0.5,0,0.8,0.3,0.8,0.8v3.5c0,0.4-0.3,0.7-0.8,0.7h-10.8
		c-0.2,0-0.4,0-0.4,0.1c-0.1,0.1-0.1,0.2-0.1,0.4v34.2c0,0.5-0.3,0.8-0.8,0.8h-5.1c-0.5,0-0.7-0.3-0.7-0.8v-34.1
		c0-0.3,0-0.4-0.1-0.5c-0.1-0.1-0.2-0.1-0.5-0.1h-11.4c-0.5,0-0.8-0.2-0.8-0.7V409.8z"/>
	<path fill="#010101" d="M403.7,441.5c0.8,1.3,1.8,2.4,3.2,3.2c1.3,0.8,2.8,1.2,4.4,1.2c1.7,0,3.2-0.3,4.5-1
		c1.3-0.7,2.5-1.8,3.6-3.2c0.1-0.1,0.2-0.2,0.4-0.2c0.2,0,0.3,0,0.4,0.1l2.8,1.3c0.2,0.1,0.3,0.3,0.3,0.4c0,0.1-0.1,0.3-0.2,0.4
		c-1.5,2.2-3.3,3.9-5.2,4.9c-2,1-4.3,1.5-7.1,1.5c-2.7,0-5.1-0.6-7.3-1.8c-2.1-1.2-3.8-3-5-5.2c-1.2-2.2-1.8-4.8-1.8-7.6
		c0-3,0.6-5.7,1.8-8.1c1.2-2.3,2.9-4.1,5-5.4c2.1-1.3,4.5-1.9,7.1-1.9c2.7,0,5,0.6,7.1,1.8c2,1.2,3.6,2.9,4.7,5.1s1.7,4.9,1.7,8v0.2
		c0,0.3,0,0.6-0.1,0.7c-0.1,0.2-0.3,0.2-0.7,0.2h-20.1c-0.4,0-0.5,0.3-0.5,0.9C402.6,438.7,403,440.1,403.7,441.5z M417.4,432.7
		c0.4,0,0.6-0.1,0.7-0.2c0.1-0.1,0.2-0.3,0.2-0.6c0-1.4-0.3-2.7-0.9-4c-0.6-1.2-1.5-2.2-2.6-3c-1.1-0.7-2.5-1.1-4.1-1.1
		c-1.6,0-3.1,0.4-4.3,1.2c-1.2,0.8-2.2,1.9-2.9,3.2c-0.7,1.3-1,2.8-1,4.3L417.4,432.7z"/>
	<path fill="#010101" d="M453.9,449.1c0,0.3-0.3,0.4-0.8,0.4h-4.8c-0.6,0-1.1-0.2-1.4-0.6l-7-9.7c-0.2-0.3-0.4-0.5-0.5-0.5
		c-0.1,0-0.3,0.2-0.5,0.5l-7.3,9.7c-0.2,0.4-0.7,0.6-1.3,0.6h-3.2c-0.6,0-0.9-0.2-0.9-0.5c0-0.3,0.1-0.6,0.4-1l9.6-12.2
		c0.2-0.3,0.3-0.5,0.3-0.7c0-0.2-0.1-0.5-0.3-0.7l-9.2-12.6c-0.1-0.2-0.2-0.3-0.2-0.4c0-0.4,0.3-0.7,0.8-0.7h4.5
		c0.3,0,0.6,0,0.8,0.1c0.2,0.1,0.4,0.2,0.5,0.5l6.6,9.1c0.1,0.2,0.3,0.3,0.4,0.3c0.1,0,0.3-0.1,0.4-0.3l6.4-9.1
		c0.1-0.2,0.3-0.4,0.5-0.5c0.2-0.1,0.5-0.1,0.8-0.1h3.5c0.4,0,0.7,0.1,0.7,0.4c0,0.1-0.1,0.3-0.2,0.5l-8.9,11.9
		c-0.2,0.2-0.3,0.4-0.3,0.7c0,0.2,0.1,0.4,0.3,0.7l9.8,13.3C453.8,448.5,453.9,448.8,453.9,449.1z"/>
	<path fill="#010101" d="M466.9,424.7c-0.3,0-0.5,0.2-0.5,0.5v15.9c0,1.5,0.3,2.6,0.8,3.2c0.6,0.6,1.5,0.9,2.7,0.9h3.5
		c0.4,0,0.7,0.2,0.7,0.7v2.3c0,0.5-0.3,0.8-0.8,0.9c-1.2,0.2-3,0.3-5.5,0.3c-2.4,0-4.2-0.6-5.3-1.7c-1.2-1.1-1.7-2.8-1.7-5.1v-17.2
		c0-0.4-0.2-0.7-0.5-0.7H456c-0.5,0-0.7-0.2-0.7-0.7v-2.9c0-0.4,0.2-0.6,0.7-0.6h4.4c0.3,0,0.4-0.2,0.4-0.5l0.7-8.5
		c0.1-0.5,0.3-0.8,0.7-0.8h3.8c0.5,0,0.7,0.3,0.7,0.9v8.4c0,0.3,0.2,0.5,0.5,0.5h6.5c0.4,0,0.7,0.2,0.7,0.6v2.9
		c0,0.4-0.3,0.7-0.8,0.7H466.9z"/>
	<path fill="#010101" d="M489.6,409.8c0-0.5,0.3-0.8,0.8-0.8h29.9c0.5,0,0.8,0.3,0.8,0.8v3.5c0,0.4-0.3,0.7-0.8,0.7h-10.8
		c-0.2,0-0.4,0-0.4,0.1c-0.1,0.1-0.1,0.2-0.1,0.4v34.2c0,0.5-0.3,0.8-0.8,0.8H503c-0.5,0-0.7-0.3-0.7-0.8v-34.1c0-0.3,0-0.4-0.1-0.5
		c-0.1-0.1-0.2-0.1-0.5-0.1h-11.4c-0.5,0-0.8-0.2-0.8-0.7V409.8z"/>
	<path fill="#010101" d="M526.6,441.5c0.8,1.3,1.8,2.4,3.2,3.2c1.3,0.8,2.8,1.2,4.4,1.2c1.7,0,3.2-0.3,4.5-1
		c1.3-0.7,2.5-1.8,3.6-3.2c0.1-0.1,0.2-0.2,0.4-0.2c0.2,0,0.3,0,0.4,0.1l2.8,1.3c0.2,0.1,0.3,0.3,0.3,0.4c0,0.1-0.1,0.3-0.2,0.4
		c-1.5,2.2-3.3,3.9-5.2,4.9c-2,1-4.3,1.5-7.1,1.5c-2.7,0-5.1-0.6-7.3-1.8c-2.1-1.2-3.8-3-5-5.2c-1.2-2.2-1.8-4.8-1.8-7.6
		c0-3,0.6-5.7,1.8-8.1c1.2-2.3,2.9-4.1,5-5.4c2.1-1.3,4.5-1.9,7.1-1.9c2.7,0,5,0.6,7.1,1.8c2,1.2,3.6,2.9,4.7,5.1s1.7,4.9,1.7,8v0.2
		c0,0.3,0,0.6-0.1,0.7c-0.1,0.2-0.3,0.2-0.7,0.2H526c-0.4,0-0.5,0.3-0.5,0.9C525.4,438.7,525.8,440.1,526.6,441.5z M540.3,432.7
		c0.4,0,0.6-0.1,0.7-0.2c0.1-0.1,0.2-0.3,0.2-0.6c0-1.4-0.3-2.7-0.9-4c-0.6-1.2-1.5-2.2-2.6-3c-1.1-0.7-2.5-1.1-4.1-1.1
		c-1.6,0-3.1,0.4-4.3,1.2c-1.2,0.8-2.2,1.9-2.9,3.2c-0.7,1.3-1,2.8-1,4.3L540.3,432.7z"/>
	<path fill="#010101" d="M576.8,449.1c0,0.3-0.3,0.4-0.8,0.4h-4.8c-0.6,0-1.1-0.2-1.4-0.6l-7-9.7c-0.2-0.3-0.4-0.5-0.5-0.5
		c-0.1,0-0.3,0.2-0.5,0.5l-7.3,9.7c-0.2,0.4-0.7,0.6-1.3,0.6H550c-0.6,0-0.9-0.2-0.9-0.5c0-0.3,0.1-0.6,0.4-1l9.6-12.2
		c0.2-0.3,0.3-0.5,0.3-0.7c0-0.2-0.1-0.5-0.3-0.7l-9.2-12.6c-0.1-0.2-0.2-0.3-0.2-0.4c0-0.4,0.3-0.7,0.8-0.7h4.5
		c0.3,0,0.6,0,0.8,0.1c0.2,0.1,0.4,0.2,0.5,0.5l6.6,9.1c0.1,0.2,0.3,0.3,0.4,0.3c0.1,0,0.3-0.1,0.4-0.3l6.4-9.1
		c0.1-0.2,0.3-0.4,0.5-0.5c0.2-0.1,0.5-0.1,0.8-0.1h3.5c0.4,0,0.7,0.1,0.7,0.4c0,0.1-0.1,0.3-0.2,0.5l-8.9,11.9
		c-0.2,0.2-0.3,0.4-0.3,0.7c0,0.2,0.1,0.4,0.3,0.7l9.8,13.3C576.6,448.5,576.8,448.8,576.8,449.1z"/>
	<path fill="#010101" d="M589.8,424.7c-0.3,0-0.5,0.2-0.5,0.5v15.9c0,1.5,0.3,2.6,0.8,3.2c0.6,0.6,1.5,0.9,2.7,0.9h3.5
		c0.4,0,0.7,0.2,0.7,0.7v2.3c0,0.5-0.3,0.8-0.8,0.9c-1.2,0.2-3,0.3-5.5,0.3c-2.4,0-4.2-0.6-5.3-1.7c-1.2-1.1-1.7-2.8-1.7-5.1v-17.2
		c0-0.4-0.2-0.7-0.5-0.7h-4.1c-0.5,0-0.7-0.2-0.7-0.7v-2.9c0-0.4,0.2-0.6,0.7-0.6h4.4c0.3,0,0.4-0.2,0.4-0.5l0.7-8.5
		c0.1-0.5,0.3-0.8,0.7-0.8h3.8c0.5,0,0.7,0.3,0.7,0.9v8.4c0,0.3,0.2,0.5,0.5,0.5h6.5c0.4,0,0.7,0.2,0.7,0.6v2.9
		c0,0.4-0.3,0.7-0.8,0.7H589.8z"/>
</g>
<g enable-background="new    ">
	<path fill="#010101" d="M366.7,465.9c0-0.5,0.3-0.8,0.8-0.8h29.9c0.5,0,0.8,0.3,0.8,0.8v3.5c0,0.4-0.3,0.7-0.8,0.7h-10.8
		c-0.2,0-0.4,0-0.4,0.1c-0.1,0.1-0.1,0.2-0.1,0.4v34.2c0,0.5-0.3,0.8-0.8,0.8h-5.1c-0.5,0-0.7-0.3-0.7-0.8v-34.1
		c0-0.3,0-0.4-0.1-0.5c-0.1-0.1-0.2-0.1-0.5-0.1h-11.4c-0.5,0-0.8-0.2-0.8-0.7V465.9z"/>
	<path fill="#010101" d="M403.7,497.6c0.8,1.3,1.8,2.4,3.2,3.2c1.3,0.8,2.8,1.2,4.4,1.2c1.7,0,3.2-0.3,4.5-1
		c1.3-0.7,2.5-1.8,3.6-3.2c0.1-0.1,0.2-0.2,0.4-0.2c0.2,0,0.3,0,0.4,0.1l2.8,1.3c0.2,0.1,0.3,0.3,0.3,0.4c0,0.1-0.1,0.3-0.2,0.4
		c-1.5,2.2-3.3,3.9-5.2,4.9c-2,1-4.3,1.5-7.1,1.5c-2.7,0-5.1-0.6-7.3-1.8c-2.1-1.2-3.8-3-5-5.2c-1.2-2.2-1.8-4.8-1.8-7.6
		c0-3,0.6-5.7,1.8-8.1c1.2-2.3,2.9-4.1,5-5.4c2.1-1.3,4.5-1.9,7.1-1.9c2.7,0,5,0.6,7.1,1.8c2,1.2,3.6,2.9,4.7,5.1s1.7,4.9,1.7,8v0.2
		c0,0.3,0,0.6-0.1,0.7c-0.1,0.2-0.3,0.2-0.7,0.2h-20.1c-0.4,0-0.5,0.3-0.5,0.9C402.6,494.8,403,496.2,403.7,497.6z M417.4,488.8
		c0.4,0,0.6-0.1,0.7-0.2c0.1-0.1,0.2-0.3,0.2-0.6c0-1.4-0.3-2.7-0.9-4c-0.6-1.2-1.5-2.2-2.6-3c-1.1-0.7-2.5-1.1-4.1-1.1
		c-1.6,0-3.1,0.4-4.3,1.2c-1.2,0.8-2.2,1.9-2.9,3.2c-0.7,1.3-1,2.8-1,4.3L417.4,488.8z"/>
	<path fill="#010101" d="M453.9,505.2c0,0.3-0.3,0.4-0.8,0.4h-4.8c-0.6,0-1.1-0.2-1.4-0.6l-7-9.7c-0.2-0.3-0.4-0.5-0.5-0.5
		c-0.1,0-0.3,0.2-0.5,0.5l-7.3,9.7c-0.2,0.4-0.7,0.6-1.3,0.6h-3.2c-0.6,0-0.9-0.2-0.9-0.5c0-0.3,0.1-0.6,0.4-1l9.6-12.2
		c0.2-0.3,0.3-0.5,0.3-0.7c0-0.2-0.1-0.5-0.3-0.7l-9.2-12.6c-0.1-0.2-0.2-0.3-0.2-0.4c0-0.4,0.3-0.7,0.8-0.7h4.5
		c0.3,0,0.6,0,0.8,0.1c0.2,0.1,0.4,0.2,0.5,0.5l6.6,9.1c0.1,0.2,0.3,0.3,0.4,0.3c0.1,0,0.3-0.1,0.4-0.3l6.4-9.1
		c0.1-0.2,0.3-0.4,0.5-0.5c0.2-0.1,0.5-0.1,0.8-0.1h3.5c0.4,0,0.7,0.1,0.7,0.4c0,0.1-0.1,0.3-0.2,0.5l-8.9,11.9
		c-0.2,0.2-0.3,0.4-0.3,0.7c0,0.2,0.1,0.4,0.3,0.7l9.8,13.3C453.8,504.6,453.9,504.9,453.9,505.2z"/>
	<path fill="#010101" d="M466.9,480.8c-0.3,0-0.5,0.2-0.5,0.5v15.9c0,1.5,0.3,2.6,0.8,3.2c0.6,0.6,1.5,0.9,2.7,0.9h3.5
		c0.4,0,0.7,0.2,0.7,0.7v2.3c0,0.5-0.3,0.8-0.8,0.9c-1.2,0.2-3,0.3-5.5,0.3c-2.4,0-4.2-0.6-5.3-1.7c-1.2-1.1-1.7-2.8-1.7-5.1v-17.2
		c0-0.4-0.2-0.7-0.5-0.7H456c-0.5,0-0.7-0.2-0.7-0.7v-2.9c0-0.4,0.2-0.6,0.7-0.6h4.4c0.3,0,0.4-0.2,0.4-0.5l0.7-8.5
		c0.1-0.5,0.3-0.8,0.7-0.8h3.8c0.5,0,0.7,0.3,0.7,0.9v8.4c0,0.3,0.2,0.5,0.5,0.5h6.5c0.4,0,0.7,0.2,0.7,0.6v2.9
		c0,0.4-0.3,0.7-0.8,0.7H466.9z"/>
	<path fill="#010101" d="M489.6,465.9c0-0.5,0.3-0.8,0.8-0.8h29.9c0.5,0,0.8,0.3,0.8,0.8v3.5c0,0.4-0.3,0.7-0.8,0.7h-10.8
		c-0.2,0-0.4,0-0.4,0.1c-0.1,0.1-0.1,0.2-0.1,0.4v34.2c0,0.5-0.3,0.8-0.8,0.8H503c-0.5,0-0.7-0.3-0.7-0.8v-34.1c0-0.3,0-0.4-0.1-0.5
		c-0.1-0.1-0.2-0.1-0.5-0.1h-11.4c-0.5,0-0.8-0.2-0.8-0.7V465.9z"/>
	<path fill="#010101" d="M526.6,497.6c0.8,1.3,1.8,2.4,3.2,3.2c1.3,0.8,2.8,1.2,4.4,1.2c1.7,0,3.2-0.3,4.5-1
		c1.3-0.7,2.5-1.8,3.6-3.2c0.1-0.1,0.2-0.2,0.4-0.2c0.2,0,0.3,0,0.4,0.1l2.8,1.3c0.2,0.1,0.3,0.3,0.3,0.4c0,0.1-0.1,0.3-0.2,0.4
		c-1.5,2.2-3.3,3.9-5.2,4.9c-2,1-4.3,1.5-7.1,1.5c-2.7,0-5.1-0.6-7.3-1.8c-2.1-1.2-3.8-3-5-5.2c-1.2-2.2-1.8-4.8-1.8-7.6
		c0-3,0.6-5.7,1.8-8.1c1.2-2.3,2.9-4.1,5-5.4c2.1-1.3,4.5-1.9,7.1-1.9c2.7,0,5,0.6,7.1,1.8c2,1.2,3.6,2.9,4.7,5.1s1.7,4.9,1.7,8v0.2
		c0,0.3,0,0.6-0.1,0.7c-0.1,0.2-0.3,0.2-0.7,0.2H526c-0.4,0-0.5,0.3-0.5,0.9C525.4,494.8,525.8,496.2,526.6,497.6z M540.3,488.8
		c0.4,0,0.6-0.1,0.7-0.2c0.1-0.1,0.2-0.3,0.2-0.6c0-1.4-0.3-2.7-0.9-4c-0.6-1.2-1.5-2.2-2.6-3c-1.1-0.7-2.5-1.1-4.1-1.1
		c-1.6,0-3.1,0.4-4.3,1.2c-1.2,0.8-2.2,1.9-2.9,3.2c-0.7,1.3-1,2.8-1,4.3L540.3,488.8z"/>
	<path fill="#010101" d="M576.8,505.2c0,0.3-0.3,0.4-0.8,0.4h-4.8c-0.6,0-1.1-0.2-1.4-0.6l-7-9.7c-0.2-0.3-0.4-0.5-0.5-0.5
		c-0.1,0-0.3,0.2-0.5,0.5l-7.3,9.7c-0.2,0.4-0.7,0.6-1.3,0.6H550c-0.6,0-0.9-0.2-0.9-0.5c0-0.3,0.1-0.6,0.4-1l9.6-12.2
		c0.2-0.3,0.3-0.5,0.3-0.7c0-0.2-0.1-0.5-0.3-0.7l-9.2-12.6c-0.1-0.2-0.2-0.3-0.2-0.4c0-0.4,0.3-0.7,0.8-0.7h4.5
		c0.3,0,0.6,0,0.8,0.1c0.2,0.1,0.4,0.2,0.5,0.5l6.6,9.1c0.1,0.2,0.3,0.3,0.4,0.3c0.1,0,0.3-0.1,0.4-0.3l6.4-9.1
		c0.1-0.2,0.3-0.4,0.5-0.5c0.2-0.1,0.5-0.1,0.8-0.1h3.5c0.4,0,0.7,0.1,0.7,0.4c0,0.1-0.1,0.3-0.2,0.5l-8.9,11.9
		c-0.2,0.2-0.3,0.4-0.3,0.7c0,0.2,0.1,0.4,0.3,0.7l9.8,13.3C576.6,504.6,576.8,504.9,576.8,505.2z"/>
	<path fill="#010101" d="M589.8,480.8c-0.3,0-0.5,0.2-0.5,0.5v15.9c0,1.5,0.3,2.6,0.8,3.2c0.6,0.6,1.5,0.9,2.7,0.9h3.5
		c0.4,0,0.7,0.2,0.7,0.7v2.3c0,0.5-0.3,0.8-0.8,0.9c-1.2,0.2-3,0.3-5.5,0.3c-2.4,0-4.2-0.6-5.3-1.7c-1.2-1.1-1.7-2.8-1.7-5.1v-17.2
		c0-0.4-0.2-0.7-0.5-0.7h-4.1c-0.5,0-0.7-0.2-0.7-0.7v-2.9c0-0.4,0.2-0.6,0.7-0.6h4.4c0.3,0,0.4-0.2,0.4-0.5l0.7-8.5
		c0.1-0.5,0.3-0.8,0.7-0.8h3.8c0.5,0,0.7,0.3,0.7,0.9v8.4c0,0.3,0.2,0.5,0.5,0.5h6.5c0.4,0,0.7,0.2,0.7,0.6v2.9
		c0,0.4-0.3,0.7-0.8,0.7H589.8z"/>
</g>
</svg>
