<?xml version="1.0" encoding="utf-8"?>
<!-- Generator: Adobe Illustrator 17.1.0, SVG Export Plug-In . SVG Version: 6.00 Build 0)  -->
<!DOCTYPE svg PUBLIC "-//W3C//DTD SVG 1.1//EN" "http://www.w3.org/Graphics/SVG/1.1/DTD/svg11.dtd">
<svg version="1.1" id="Layer_1" xmlns="http://www.w3.org/2000/svg" xmlns:xlink="http://www.w3.org/1999/xlink" x="0px" y="0px"
	 viewBox="0 0 612 792" enable-background="new 0 0 612 792" xml:space="preserve">
<g enable-background="new    ">
	<path fill="#010101" d="M105.5,488.4c0-0.6,0.2-1.8,0.6-3.5l79.4-220.2c0.8-2.1,1.8-3.6,2.8-4.4c1-0.8,2.6-1.3,4.7-1.3h39.4
		c4.6,0,7.6,2.1,8.8,6.3l78.8,219.9c0.4,1.3,0.6,2.2,0.6,2.8c0,1.3-0.4,2.4-1.1,3.3c-0.7,0.9-1.7,1.4-3,1.4h-38.1
		c-2.9,0-4.8-1.4-5.7-4.1l-18.3-51c-0.4-1-0.8-1.8-1.3-2.4c-0.4-0.5-1.3-0.8-2.5-0.8h-82.2c-1.9,0-3.2,0.9-3.8,2.8L145.8,489
		c-0.6,2.5-2.5,3.8-5.7,3.8h-30.6C106.9,492.8,105.5,491.3,105.5,488.4z M239.4,398.9c1.9,0,2.8-0.8,2.8-2.5c0-1-0.1-1.9-0.3-2.5
		l-30.2-84.1c-0.6-1.5-1.4-2.2-2.2-2.2c-0.8,0-1.6,0.8-2.2,2.5l-30.6,83.8c-0.4,1.3-0.6,2.2-0.6,2.8c0,1.5,1,2.2,3.2,2.2H239.4z"/>
	<path fill="#010101" d="M393.8,495.9c-16,0-28.6-4.3-38-12.8c-9.3-8.5-14-19.6-14-33.2c0-17.4,7.8-31.3,23.3-41.6
		c15.5-10.3,37.3-16,65.2-17l15.8-0.9c3.4-0.4,5-2,5-4.7v-7.2c0-9.2-2.8-16.4-8.3-21.6c-5.6-5.1-13.2-7.7-22.8-7.7
		c-16,0-28.3,6.9-36.9,20.8c-0.6,0.8-1.2,1.5-1.7,2c-0.5,0.5-1.2,0.8-2,0.8c-1.1,0-1.9-0.1-2.5-0.3l-26.5-6.6
		c-1.7-0.4-2.5-1.4-2.5-2.8c0-1,0.4-2.4,1.3-4.1c5.5-11.8,14.4-20.7,26.9-26.9c12.5-6.2,27.8-9.3,45.8-9.3
		c23.5,0,40.8,4.6,51.8,13.9c11,9.2,16.5,22.3,16.5,39.1v110.9c0,2.3-0.4,3.9-1.1,4.9c-0.7,0.9-2.2,1.4-4.3,1.4h-26.8
		c-1.9,0-3.3-0.6-4.1-1.9c-0.8-1.3-1.5-3.2-1.9-5.7l-0.3-9.5c-0.2-1.9-0.9-2.8-2.2-2.8c-0.6,0-2,0.8-4.1,2.5
		C430.8,489.1,413.5,495.9,393.8,495.9z M450,412.4c-0.7-0.8-1.9-1.3-3.6-1.3l-12.9,0.9c-14.7,1.1-26.9,4.4-36.7,9.9
		c-9.8,5.6-14.7,13.2-14.7,22.8c0,7.1,2.6,12.8,7.7,17c5.1,4.2,12,6.3,20.6,6.3c10.9,0,20.5-3.4,28.7-10.1c8-6.3,12-12.7,12-19.2
		v-22.4C451.1,414.6,450.8,413.3,450,412.4z"/>
</g>
</svg>
