<?xml version="1.0" encoding="utf-8"?>
<!-- Generator: Adobe Illustrator 17.1.0, SVG Export Plug-In . SVG Version: 6.00 Build 0)  -->
<!DOCTYPE svg PUBLIC "-//W3C//DTD SVG 1.1//EN" "http://www.w3.org/Graphics/SVG/1.1/DTD/svg11.dtd">
<svg version="1.1" id="Layer_1" xmlns="http://www.w3.org/2000/svg" xmlns:xlink="http://www.w3.org/1999/xlink" x="0px" y="0px"
	 viewBox="0 0 612 792" enable-background="new 0 0 612 792" xml:space="preserve">
<ellipse fill="none" stroke="#231F20" stroke-width="9" stroke-miterlimit="10" cx="295.3" cy="328.2" rx="160.8" ry="112.2"/>
<g enable-background="new    ">
	<path fill="#231F20" d="M229.3,313.7c-0.4-0.4-0.6-1-0.6-1.7v-56.4c0-0.7,0.1-1.1,0.4-1.4c0.3-0.3,0.7-0.4,1.3-0.4h22.8
		c0.7,0,1.2,0.1,1.5,0.3c0.3,0.2,0.6,0.6,0.8,1.2l8.5,25.9c0.2,0.4,0.4,0.7,0.6,0.7c0.2,0,0.3-0.2,0.5-0.7l7.6-25.1
		c0.4-1.6,1.2-2.4,2.2-2.4h23.6c1,0,1.5,0.6,1.5,1.7v56.5c0,0.9-0.2,1.5-0.6,1.8c-0.4,0.4-1.1,0.5-2,0.5h-13.8
		c-0.8,0-1.4-0.2-1.7-0.5c-0.3-0.3-0.4-0.8-0.4-1.6v-36.6c0-0.4-0.1-0.7-0.3-0.7c-0.3,0-0.5,0.2-0.7,0.7l-11.8,37.1
		c-0.4,1-1,1.5-2,1.5h-8.6c-1,0-1.6-0.5-2-1.5l-11.8-36.5c-0.2-0.5-0.4-0.8-0.6-0.8c-0.3,0-0.4,0.3-0.4,0.9v36.1
		c0,0.7-0.1,1.2-0.3,1.4c-0.2,0.2-0.7,0.4-1.5,0.4h-10.9C230.2,314.3,229.7,314.1,229.3,313.7z"/>
	<path fill="#231F20" d="M365.5,254.7c0,0.2-0.1,0.5-0.3,0.9l-19.1,30.8c-0.4,0.5-0.6,1.1-0.7,1.8c-0.1,0.7-0.1,1.9-0.1,3.6v20.1
		c0,0.9-0.2,1.5-0.7,1.8c-0.4,0.4-1.1,0.5-2,0.5h-13.7c-0.8,0-1.4-0.2-1.7-0.5c-0.3-0.3-0.4-0.8-0.4-1.6v-21.5
		c0-0.8-0.1-1.4-0.2-1.8c-0.2-0.5-0.5-1-0.9-1.8L306.5,256c-0.2-0.4-0.3-0.7-0.3-1.1c0-0.8,0.6-1.2,1.8-1.2h16.4
		c0.8,0,1.3,0.1,1.7,0.3c0.4,0.2,0.7,0.7,1.1,1.4l10,18.1c0.3,0.5,0.5,0.8,0.7,0.8c0.3,0,0.5-0.2,0.7-0.7l9.9-18.2
		c0.3-0.7,0.7-1.2,1.1-1.4c0.4-0.2,1-0.3,1.7-0.3H364C365,253.7,365.5,254,365.5,254.7z"/>
</g>
<g enable-background="new    ">
	<path fill="#231F20" d="M179.7,325.6c0.3-0.3,0.7-0.5,1.1-0.5h15.5c1,0,1.5,0.6,1.5,1.7v44.3c0,0.4,0.1,0.7,0.2,0.9
		c0.1,0.2,0.4,0.2,0.8,0.2h24.6c1.3,0,1.9,0.5,1.9,1.6v10c0,0.5-0.2,1-0.5,1.3c-0.4,0.3-0.9,0.5-1.5,0.5h-41.7
		c-0.8,0-1.4-0.2-1.7-0.5c-0.3-0.3-0.5-0.8-0.5-1.6V327C179.2,326.4,179.4,325.9,179.7,325.6z"/>
	<path fill="#231F20" d="M238.9,382.7c-4.4-2.5-7.8-6.1-10.2-10.8c-2.4-4.7-3.6-10.1-3.6-16.4c0-6.3,1.2-11.7,3.6-16.4
		c2.4-4.7,5.8-8.4,10.3-10.9c4.4-2.6,9.6-3.9,15.5-3.9c5.8,0,10.9,1.3,15.3,3.9c4.4,2.6,7.8,6.2,10.2,10.9
		c2.4,4.7,3.6,10.2,3.6,16.4c0,6.2-1.2,11.6-3.6,16.3c-2.4,4.7-5.8,8.3-10.2,10.8c-4.4,2.5-9.5,3.8-15.4,3.8
		C248.6,386.5,243.4,385.2,238.9,382.7z M260.2,372c1.4-1.2,2.4-3.1,3.1-5.7c0.7-2.6,1-6.1,1-10.5c0-6.7-0.8-11.6-2.3-14.5
		c-1.5-2.9-4-4.4-7.5-4.4c-3.5,0-6.1,1.5-7.6,4.4c-1.6,2.9-2.3,7.8-2.3,14.5c0,4.4,0.3,7.9,1,10.5c0.7,2.6,1.7,4.5,3.1,5.7
		c1.4,1.2,3.4,1.8,5.8,1.8C256.9,373.7,258.8,373.2,260.2,372z"/>
	<path fill="#231F20" d="M302.3,382.6c-4.3-2.6-7.7-6.2-10-10.9c-2.4-4.7-3.5-10-3.5-16c0-6.2,1.3-11.7,3.8-16.4
		c2.5-4.7,6-8.4,10.5-11c4.5-2.6,9.6-3.9,15.4-3.9c4.7,0,8.9,0.9,12.5,2.6c3.7,1.7,6.6,3.9,8.9,6.7c2.3,2.7,3.7,5.6,4.4,8.6
		c0.2,0.7,0.2,1.2,0.2,1.6c0,0.5-0.1,0.8-0.3,1c-0.2,0.2-0.6,0.3-1.1,0.3l-14,2.1c-0.6,0-1-0.1-1.1-0.3c-0.2-0.2-0.3-0.7-0.5-1.3
		c-0.4-2.5-1.5-4.6-3.1-6.2c-1.6-1.6-3.8-2.4-6.5-2.4c-3.2,0-5.6,1.4-7.3,4.1c-1.7,2.7-2.5,7.4-2.5,14.1c0,7,0.9,11.8,2.7,14.5
		c1.8,2.7,4.4,4.1,7.8,4.1c4.4,0,7.3-1.9,8.8-5.7l0.2-0.7l0.2-0.7c0-0.5-0.3-0.7-0.9-0.7h-7.7c-0.6,0-1-0.1-1.3-0.4
		c-0.2-0.3-0.4-0.7-0.4-1.4v-7.8c0-0.9,0.6-1.4,1.7-1.4l22.8,0.2c1,0,1.7,0.2,2.3,0.7c0.5,0.5,0.8,1.1,0.8,1.8v26.7
		c0,0.4-0.1,0.7-0.4,1c-0.3,0.3-0.6,0.4-1,0.4h-3.1c-1,0-1.8-0.5-2.6-1.6l-3.3-4.7c-0.1-0.2-0.2-0.2-0.3-0.2c-0.1,0-0.3,0.1-0.6,0.4
		c-1.4,1.4-2.8,2.5-4,3.4c-1.3,0.9-3,1.7-5.1,2.4c-2.1,0.7-4.7,1.1-7.6,1.1C311.6,386.5,306.6,385.2,302.3,382.6z"/>
	<path fill="#231F20" d="M364.7,382.7c-4.4-2.5-7.8-6.1-10.2-10.8c-2.4-4.7-3.6-10.1-3.6-16.4c0-6.3,1.2-11.7,3.6-16.4
		c2.4-4.7,5.8-8.4,10.3-10.9c4.4-2.6,9.6-3.9,15.5-3.9c5.8,0,10.9,1.3,15.3,3.9c4.4,2.6,7.8,6.2,10.2,10.9
		c2.4,4.7,3.6,10.2,3.6,16.4c0,6.2-1.2,11.6-3.6,16.3c-2.4,4.7-5.8,8.3-10.2,10.8c-4.4,2.5-9.5,3.8-15.4,3.8
		C374.3,386.5,369.1,385.2,364.7,382.7z M385.9,372c1.4-1.2,2.4-3.1,3.1-5.7c0.7-2.6,1-6.1,1-10.5c0-6.7-0.8-11.6-2.3-14.5
		c-1.5-2.9-4-4.4-7.5-4.4c-3.5,0-6.1,1.5-7.6,4.4c-1.6,2.9-2.3,7.8-2.3,14.5c0,4.4,0.3,7.9,1,10.5c0.7,2.6,1.7,4.5,3.1,5.7
		c1.4,1.2,3.4,1.8,5.8,1.8C382.6,373.7,384.5,373.2,385.9,372z"/>
</g>
<g enable-background="new    ">
	<path fill="#010101" d="M41.5,470.6c0-0.5,0.3-0.8,0.8-0.8h29.9c0.5,0,0.8,0.3,0.8,0.8v3.5c0,0.4-0.3,0.7-0.8,0.7H61.4
		c-0.2,0-0.4,0-0.4,0.1c-0.1,0.1-0.1,0.2-0.1,0.4v34.2c0,0.5-0.3,0.8-0.8,0.8H55c-0.5,0-0.7-0.3-0.7-0.8v-34.1c0-0.3,0-0.4-0.1-0.5
		c-0.1-0.1-0.2-0.1-0.5-0.1H42.3c-0.5,0-0.8-0.2-0.8-0.7V470.6z"/>
	<path fill="#010101" d="M78.5,502.2c0.8,1.3,1.8,2.4,3.2,3.2c1.3,0.8,2.8,1.2,4.4,1.2c1.7,0,3.2-0.3,4.5-1c1.3-0.7,2.5-1.8,3.6-3.2
		c0.1-0.1,0.2-0.2,0.4-0.2c0.2,0,0.3,0,0.4,0.1l2.8,1.3c0.2,0.1,0.3,0.3,0.3,0.4c0,0.1-0.1,0.3-0.2,0.4c-1.5,2.2-3.3,3.9-5.2,4.9
		c-2,1-4.3,1.5-7.1,1.5c-2.7,0-5.2-0.6-7.3-1.8c-2.1-1.2-3.8-3-5-5.2s-1.8-4.8-1.8-7.6c0-3,0.6-5.7,1.8-8.1c1.2-2.3,2.9-4.1,5-5.4
		s4.5-1.9,7.1-1.9c2.7,0,5,0.6,7.1,1.8c2,1.2,3.6,2.9,4.7,5.1c1.1,2.2,1.7,4.9,1.7,8v0.2c0,0.3,0,0.6-0.1,0.7
		c-0.1,0.2-0.3,0.2-0.7,0.2H77.9c-0.4,0-0.5,0.3-0.5,0.9C77.4,499.4,77.7,500.9,78.5,502.2z M92.2,493.5c0.4,0,0.6-0.1,0.7-0.2
		c0.1-0.1,0.2-0.3,0.2-0.6c0-1.4-0.3-2.7-0.9-4c-0.6-1.2-1.5-2.2-2.6-3c-1.1-0.7-2.5-1.1-4.1-1.1c-1.6,0-3.1,0.4-4.3,1.2
		c-1.2,0.8-2.2,1.9-2.9,3.2c-0.7,1.3-1,2.8-1,4.3L92.2,493.5z"/>
	<path fill="#010101" d="M128.7,509.8c0,0.3-0.3,0.4-0.8,0.4h-4.8c-0.6,0-1.1-0.2-1.4-0.6l-7-9.7c-0.2-0.3-0.4-0.5-0.5-0.5
		c-0.1,0-0.3,0.2-0.5,0.5l-7.3,9.7c-0.2,0.4-0.7,0.6-1.3,0.6h-3.2c-0.6,0-0.9-0.2-0.9-0.5c0-0.3,0.1-0.6,0.4-1l9.6-12.2
		c0.2-0.3,0.3-0.5,0.3-0.7c0-0.2-0.1-0.5-0.3-0.7l-9.2-12.6c-0.1-0.2-0.2-0.3-0.2-0.4c0-0.4,0.3-0.7,0.8-0.7h4.5
		c0.3,0,0.6,0,0.8,0.1c0.2,0.1,0.4,0.2,0.5,0.5l6.6,9.1c0.1,0.2,0.3,0.3,0.4,0.3c0.1,0,0.3-0.1,0.4-0.3l6.4-9.1
		c0.1-0.2,0.3-0.4,0.5-0.5c0.2-0.1,0.5-0.1,0.8-0.1h3.5c0.4,0,0.7,0.1,0.7,0.4c0,0.1-0.1,0.3-0.2,0.5l-8.9,11.9
		c-0.2,0.2-0.3,0.4-0.3,0.7c0,0.2,0.1,0.4,0.3,0.7l9.8,13.3C128.5,509.3,128.7,509.6,128.7,509.8z"/>
	<path fill="#010101" d="M141.7,485.5c-0.3,0-0.5,0.2-0.5,0.5V502c0,1.5,0.3,2.6,0.8,3.2c0.6,0.6,1.5,0.9,2.7,0.9h3.5
		c0.4,0,0.7,0.2,0.7,0.7v2.3c0,0.5-0.3,0.8-0.8,0.9c-1.2,0.2-3,0.3-5.5,0.3c-2.4,0-4.2-0.6-5.3-1.7c-1.2-1.1-1.7-2.8-1.7-5.1v-17.2
		c0-0.4-0.2-0.7-0.5-0.7h-4.1c-0.5,0-0.7-0.2-0.7-0.7v-2.9c0-0.4,0.2-0.6,0.7-0.6h4.4c0.3,0,0.4-0.2,0.4-0.5l0.7-8.5
		c0.1-0.5,0.3-0.8,0.7-0.8h3.8c0.5,0,0.7,0.3,0.7,0.9v8.4c0,0.3,0.2,0.5,0.5,0.5h6.5c0.4,0,0.7,0.2,0.7,0.6v2.9
		c0,0.4-0.3,0.7-0.8,0.7H141.7z"/>
	<path fill="#010101" d="M164.3,470.6c0-0.5,0.3-0.8,0.8-0.8H195c0.5,0,0.8,0.3,0.8,0.8v3.5c0,0.4-0.3,0.7-0.8,0.7h-10.8
		c-0.2,0-0.4,0-0.4,0.1c-0.1,0.1-0.1,0.2-0.1,0.4v34.2c0,0.5-0.3,0.8-0.8,0.8h-5.1c-0.5,0-0.7-0.3-0.7-0.8v-34.1
		c0-0.3,0-0.4-0.1-0.5c-0.1-0.1-0.2-0.1-0.5-0.1h-11.4c-0.5,0-0.8-0.2-0.8-0.7V470.6z"/>
	<path fill="#010101" d="M201.4,502.2c0.8,1.3,1.8,2.4,3.2,3.2c1.3,0.8,2.8,1.2,4.4,1.2c1.7,0,3.2-0.3,4.5-1
		c1.3-0.7,2.5-1.8,3.6-3.2c0.1-0.1,0.2-0.2,0.4-0.2c0.2,0,0.3,0,0.4,0.1l2.8,1.3c0.2,0.1,0.3,0.3,0.3,0.4c0,0.1-0.1,0.3-0.2,0.4
		c-1.5,2.2-3.3,3.9-5.2,4.9c-2,1-4.3,1.5-7.1,1.5c-2.7,0-5.2-0.6-7.3-1.8c-2.1-1.2-3.8-3-5-5.2s-1.8-4.8-1.8-7.6
		c0-3,0.6-5.7,1.8-8.1c1.2-2.3,2.9-4.1,5-5.4s4.5-1.9,7.1-1.9c2.7,0,5,0.6,7.1,1.8c2,1.2,3.6,2.9,4.7,5.1c1.1,2.2,1.7,4.9,1.7,8v0.2
		c0,0.3,0,0.6-0.1,0.7c-0.1,0.2-0.3,0.2-0.7,0.2h-20.1c-0.4,0-0.5,0.3-0.5,0.9C200.2,499.4,200.6,500.9,201.4,502.2z M215,493.5
		c0.4,0,0.6-0.1,0.7-0.2c0.1-0.1,0.2-0.3,0.2-0.6c0-1.4-0.3-2.7-0.9-4c-0.6-1.2-1.5-2.2-2.6-3c-1.1-0.7-2.5-1.1-4.1-1.1
		c-1.6,0-3.1,0.4-4.3,1.2c-1.2,0.8-2.2,1.9-2.9,3.2c-0.7,1.3-1,2.8-1,4.3L215,493.5z"/>
	<path fill="#010101" d="M251.5,509.8c0,0.3-0.3,0.4-0.8,0.4H246c-0.6,0-1.1-0.2-1.4-0.6l-7-9.7c-0.2-0.3-0.4-0.5-0.5-0.5
		c-0.1,0-0.3,0.2-0.5,0.5l-7.3,9.7c-0.2,0.4-0.7,0.6-1.3,0.6h-3.2c-0.6,0-0.9-0.2-0.9-0.5c0-0.3,0.1-0.6,0.4-1l9.6-12.2
		c0.2-0.3,0.3-0.5,0.3-0.7c0-0.2-0.1-0.5-0.3-0.7l-9.2-12.6c-0.1-0.2-0.2-0.3-0.2-0.4c0-0.4,0.3-0.7,0.8-0.7h4.5
		c0.3,0,0.6,0,0.8,0.1c0.2,0.1,0.4,0.2,0.5,0.5l6.6,9.1c0.1,0.2,0.3,0.3,0.4,0.3c0.1,0,0.3-0.1,0.4-0.3l6.4-9.1
		c0.1-0.2,0.3-0.4,0.5-0.5c0.2-0.1,0.5-0.1,0.8-0.1h3.5c0.4,0,0.7,0.1,0.7,0.4c0,0.1-0.1,0.3-0.2,0.5l-8.9,11.9
		c-0.2,0.2-0.3,0.4-0.3,0.7c0,0.2,0.1,0.4,0.3,0.7l9.8,13.3C251.4,509.3,251.5,509.6,251.5,509.8z"/>
	<path fill="#010101" d="M264.5,485.5c-0.3,0-0.5,0.2-0.5,0.5V502c0,1.5,0.3,2.6,0.8,3.2c0.6,0.6,1.5,0.9,2.7,0.9h3.5
		c0.4,0,0.7,0.2,0.7,0.7v2.3c0,0.5-0.3,0.8-0.8,0.9c-1.2,0.2-3,0.3-5.5,0.3c-2.4,0-4.2-0.6-5.3-1.7c-1.2-1.1-1.7-2.8-1.7-5.1v-17.2
		c0-0.4-0.2-0.7-0.5-0.7h-4.1c-0.5,0-0.7-0.2-0.7-0.7v-2.9c0-0.4,0.2-0.6,0.7-0.6h4.4c0.3,0,0.4-0.2,0.4-0.5l0.7-8.5
		c0.1-0.5,0.3-0.8,0.7-0.8h3.8c0.5,0,0.7,0.3,0.7,0.9v8.4c0,0.3,0.2,0.5,0.5,0.5h6.5c0.4,0,0.7,0.2,0.7,0.6v2.9
		c0,0.4-0.3,0.7-0.8,0.7H264.5z"/>
	<path fill="#010101" d="M287.2,470.6c0-0.5,0.3-0.8,0.8-0.8h29.9c0.5,0,0.8,0.3,0.8,0.8v3.5c0,0.4-0.3,0.7-0.8,0.7h-10.8
		c-0.2,0-0.4,0-0.4,0.1c-0.1,0.1-0.1,0.2-0.1,0.4v34.2c0,0.5-0.3,0.8-0.8,0.8h-5.1c-0.5,0-0.7-0.3-0.7-0.8v-34.1
		c0-0.3,0-0.4-0.1-0.5c-0.1-0.1-0.2-0.1-0.5-0.1h-11.4c-0.5,0-0.8-0.2-0.8-0.7V470.6z"/>
	<path fill="#010101" d="M324.2,502.2c0.8,1.3,1.8,2.4,3.2,3.2c1.3,0.8,2.8,1.2,4.4,1.2c1.7,0,3.2-0.3,4.5-1
		c1.3-0.7,2.5-1.8,3.6-3.2c0.1-0.1,0.2-0.2,0.4-0.2c0.2,0,0.3,0,0.4,0.1l2.8,1.3c0.2,0.1,0.3,0.3,0.3,0.4c0,0.1-0.1,0.3-0.2,0.4
		c-1.5,2.2-3.3,3.9-5.2,4.9c-2,1-4.3,1.5-7.1,1.5c-2.7,0-5.1-0.6-7.3-1.8c-2.1-1.2-3.8-3-5-5.2c-1.2-2.2-1.8-4.8-1.8-7.6
		c0-3,0.6-5.7,1.8-8.1c1.2-2.3,2.9-4.1,5-5.4c2.1-1.3,4.5-1.9,7.1-1.9c2.7,0,5,0.6,7.1,1.8c2,1.2,3.6,2.9,4.7,5.1s1.7,4.9,1.7,8v0.2
		c0,0.3,0,0.6-0.1,0.7c-0.1,0.2-0.3,0.2-0.7,0.2h-20.1c-0.4,0-0.5,0.3-0.5,0.9C323,499.4,323.4,500.9,324.2,502.2z M337.9,493.5
		c0.4,0,0.6-0.1,0.7-0.2c0.1-0.1,0.2-0.3,0.2-0.6c0-1.4-0.3-2.7-0.9-4c-0.6-1.2-1.5-2.2-2.6-3c-1.1-0.7-2.5-1.1-4.1-1.1
		c-1.6,0-3.1,0.4-4.3,1.2c-1.2,0.8-2.2,1.9-2.9,3.2c-0.7,1.3-1,2.8-1,4.3L337.9,493.5z"/>
	<path fill="#010101" d="M374.4,509.8c0,0.3-0.3,0.4-0.8,0.4h-4.8c-0.6,0-1.1-0.2-1.4-0.6l-7-9.7c-0.2-0.3-0.4-0.5-0.5-0.5
		c-0.1,0-0.3,0.2-0.5,0.5l-7.3,9.7c-0.2,0.4-0.7,0.6-1.3,0.6h-3.2c-0.6,0-0.9-0.2-0.9-0.5c0-0.3,0.1-0.6,0.4-1l9.6-12.2
		c0.2-0.3,0.3-0.5,0.3-0.7c0-0.2-0.1-0.5-0.3-0.7l-9.2-12.6c-0.1-0.2-0.2-0.3-0.2-0.4c0-0.4,0.3-0.7,0.8-0.7h4.5
		c0.3,0,0.6,0,0.8,0.1c0.2,0.1,0.4,0.2,0.5,0.5l6.6,9.1c0.1,0.2,0.3,0.3,0.4,0.3c0.1,0,0.3-0.1,0.4-0.3l6.4-9.1
		c0.1-0.2,0.3-0.4,0.5-0.5c0.2-0.1,0.5-0.1,0.8-0.1h3.5c0.4,0,0.7,0.1,0.7,0.4c0,0.1-0.1,0.3-0.2,0.5l-8.9,11.9
		c-0.2,0.2-0.3,0.4-0.3,0.7c0,0.2,0.1,0.4,0.3,0.7l9.8,13.3C374.2,509.3,374.4,509.6,374.4,509.8z"/>
	<path fill="#010101" d="M387.4,485.5c-0.3,0-0.5,0.2-0.5,0.5V502c0,1.5,0.3,2.6,0.8,3.2c0.6,0.6,1.5,0.9,2.7,0.9h3.5
		c0.4,0,0.7,0.2,0.7,0.7v2.3c0,0.5-0.3,0.8-0.8,0.9c-1.2,0.2-3,0.3-5.5,0.3c-2.4,0-4.2-0.6-5.3-1.7c-1.2-1.1-1.7-2.8-1.7-5.1v-17.2
		c0-0.4-0.2-0.7-0.5-0.7h-4.1c-0.5,0-0.7-0.2-0.7-0.7v-2.9c0-0.4,0.2-0.6,0.7-0.6h4.4c0.3,0,0.4-0.2,0.4-0.5l0.7-8.5
		c0.1-0.5,0.3-0.8,0.7-0.8h3.8c0.5,0,0.7,0.3,0.7,0.9v8.4c0,0.3,0.2,0.5,0.5,0.5h6.5c0.4,0,0.7,0.2,0.7,0.6v2.9
		c0,0.4-0.3,0.7-0.8,0.7H387.4z"/>
	<path fill="#010101" d="M410,470.6c0-0.5,0.3-0.8,0.8-0.8h29.9c0.5,0,0.8,0.3,0.8,0.8v3.5c0,0.4-0.3,0.7-0.8,0.7h-10.8
		c-0.2,0-0.4,0-0.4,0.1c-0.1,0.1-0.1,0.2-0.1,0.4v34.2c0,0.5-0.3,0.8-0.8,0.8h-5.1c-0.5,0-0.7-0.3-0.7-0.8v-34.1
		c0-0.3,0-0.4-0.1-0.5c-0.1-0.1-0.2-0.1-0.5-0.1h-11.4c-0.5,0-0.8-0.2-0.8-0.7V470.6z"/>
	<path fill="#010101" d="M447,502.2c0.8,1.3,1.8,2.4,3.2,3.2c1.3,0.8,2.8,1.2,4.4,1.2c1.7,0,3.2-0.3,4.5-1c1.3-0.7,2.5-1.8,3.6-3.2
		c0.1-0.1,0.2-0.2,0.4-0.2c0.2,0,0.3,0,0.4,0.1l2.8,1.3c0.2,0.1,0.3,0.3,0.3,0.4c0,0.1-0.1,0.3-0.2,0.4c-1.5,2.2-3.3,3.9-5.2,4.9
		c-2,1-4.3,1.5-7.1,1.5c-2.7,0-5.1-0.6-7.3-1.8c-2.1-1.2-3.8-3-5-5.2c-1.2-2.2-1.8-4.8-1.8-7.6c0-3,0.6-5.7,1.8-8.1
		c1.2-2.3,2.9-4.1,5-5.4c2.1-1.3,4.5-1.9,7.1-1.9c2.7,0,5,0.6,7.1,1.8c2,1.2,3.6,2.9,4.7,5.1s1.7,4.9,1.7,8v0.2c0,0.3,0,0.6-0.1,0.7
		c-0.1,0.2-0.3,0.2-0.7,0.2h-20.1c-0.4,0-0.5,0.3-0.5,0.9C445.9,499.4,446.2,500.9,447,502.2z M460.7,493.5c0.4,0,0.6-0.1,0.7-0.2
		c0.1-0.1,0.2-0.3,0.2-0.6c0-1.4-0.3-2.7-0.9-4c-0.6-1.2-1.5-2.2-2.6-3c-1.1-0.7-2.5-1.1-4.1-1.1c-1.6,0-3.1,0.4-4.3,1.2
		c-1.2,0.8-2.2,1.9-2.9,3.2c-0.7,1.3-1,2.8-1,4.3L460.7,493.5z"/>
	<path fill="#010101" d="M497.2,509.8c0,0.3-0.3,0.4-0.8,0.4h-4.8c-0.6,0-1.1-0.2-1.4-0.6l-7-9.7c-0.2-0.3-0.4-0.5-0.5-0.5
		c-0.1,0-0.3,0.2-0.5,0.5l-7.3,9.7c-0.2,0.4-0.7,0.6-1.3,0.6h-3.2c-0.6,0-0.9-0.2-0.9-0.5c0-0.3,0.1-0.6,0.4-1l9.6-12.2
		c0.2-0.3,0.3-0.5,0.3-0.7c0-0.2-0.1-0.5-0.3-0.7l-9.2-12.6c-0.1-0.2-0.2-0.3-0.2-0.4c0-0.4,0.3-0.7,0.8-0.7h4.5
		c0.3,0,0.6,0,0.8,0.1c0.2,0.1,0.4,0.2,0.5,0.5l6.6,9.1c0.1,0.2,0.3,0.3,0.4,0.3c0.1,0,0.3-0.1,0.4-0.3l6.4-9.1
		c0.1-0.2,0.3-0.4,0.5-0.5c0.2-0.1,0.5-0.1,0.8-0.1h3.5c0.4,0,0.7,0.1,0.7,0.4c0,0.1-0.1,0.3-0.2,0.5l-8.9,11.9
		c-0.2,0.2-0.3,0.4-0.3,0.7c0,0.2,0.1,0.4,0.3,0.7l9.8,13.3C497,509.3,497.2,509.6,497.2,509.8z"/>
	<path fill="#010101" d="M510.2,485.5c-0.3,0-0.5,0.2-0.5,0.5V502c0,1.5,0.3,2.6,0.8,3.2c0.6,0.6,1.5,0.9,2.7,0.9h3.5
		c0.4,0,0.7,0.2,0.7,0.7v2.3c0,0.5-0.3,0.8-0.8,0.9c-1.2,0.2-3,0.3-5.5,0.3c-2.4,0-4.2-0.6-5.3-1.7c-1.2-1.1-1.7-2.8-1.7-5.1v-17.2
		c0-0.4-0.2-0.7-0.5-0.7h-4.1c-0.5,0-0.7-0.2-0.7-0.7v-2.9c0-0.4,0.2-0.6,0.7-0.6h4.4c0.3,0,0.4-0.2,0.4-0.5l0.7-8.5
		c0.1-0.5,0.3-0.8,0.7-0.8h3.8c0.5,0,0.7,0.3,0.7,0.9v8.4c0,0.3,0.2,0.5,0.5,0.5h6.5c0.4,0,0.7,0.2,0.7,0.6v2.9
		c0,0.4-0.3,0.7-0.8,0.7H510.2z"/>
</g>
<g enable-background="new    ">
	<path fill="#010101" d="M41.5,525.1c0-0.5,0.3-0.8,0.8-0.8h29.9c0.5,0,0.8,0.3,0.8,0.8v3.5c0,0.4-0.3,0.7-0.8,0.7H61.4
		c-0.2,0-0.4,0-0.4,0.1c-0.1,0.1-0.1,0.2-0.1,0.4v34.2c0,0.5-0.3,0.8-0.8,0.8H55c-0.5,0-0.7-0.3-0.7-0.8v-34.1c0-0.3,0-0.4-0.1-0.5
		c-0.1-0.1-0.2-0.1-0.5-0.1H42.3c-0.5,0-0.8-0.2-0.8-0.7V525.1z"/>
	<path fill="#010101" d="M78.5,556.7c0.8,1.3,1.8,2.4,3.2,3.2c1.3,0.8,2.8,1.2,4.4,1.2c1.7,0,3.2-0.3,4.5-1c1.3-0.7,2.5-1.8,3.6-3.2
		c0.1-0.1,0.2-0.2,0.4-0.2c0.2,0,0.3,0,0.4,0.1l2.8,1.3c0.2,0.1,0.3,0.3,0.3,0.4c0,0.1-0.1,0.3-0.2,0.4c-1.5,2.2-3.3,3.9-5.2,4.9
		c-2,1-4.3,1.5-7.1,1.5c-2.7,0-5.2-0.6-7.3-1.8c-2.1-1.2-3.8-3-5-5.2s-1.8-4.8-1.8-7.6c0-3,0.6-5.7,1.8-8.1c1.2-2.3,2.9-4.1,5-5.4
		s4.5-1.9,7.1-1.9c2.7,0,5,0.6,7.1,1.8c2,1.2,3.6,2.9,4.7,5.1c1.1,2.2,1.7,4.9,1.7,8v0.2c0,0.3,0,0.6-0.1,0.7
		c-0.1,0.2-0.3,0.2-0.7,0.2H77.9c-0.4,0-0.5,0.3-0.5,0.9C77.4,553.9,77.7,555.4,78.5,556.7z M92.2,548c0.4,0,0.6-0.1,0.7-0.2
		c0.1-0.1,0.2-0.3,0.2-0.6c0-1.4-0.3-2.7-0.9-4c-0.6-1.2-1.5-2.2-2.6-3c-1.1-0.7-2.5-1.1-4.1-1.1c-1.6,0-3.1,0.4-4.3,1.2
		c-1.2,0.8-2.2,1.9-2.9,3.2c-0.7,1.3-1,2.8-1,4.3L92.2,548z"/>
	<path fill="#010101" d="M128.7,564.3c0,0.3-0.3,0.4-0.8,0.4h-4.8c-0.6,0-1.1-0.2-1.4-0.6l-7-9.7c-0.2-0.3-0.4-0.5-0.5-0.5
		c-0.1,0-0.3,0.2-0.5,0.5l-7.3,9.7c-0.2,0.4-0.7,0.6-1.3,0.6h-3.2c-0.6,0-0.9-0.2-0.9-0.5c0-0.3,0.1-0.6,0.4-1l9.6-12.2
		c0.2-0.3,0.3-0.5,0.3-0.7c0-0.2-0.1-0.5-0.3-0.7l-9.2-12.6c-0.1-0.2-0.2-0.3-0.2-0.4c0-0.4,0.3-0.7,0.8-0.7h4.5
		c0.3,0,0.6,0,0.8,0.1c0.2,0.1,0.4,0.2,0.5,0.5l6.6,9.1c0.1,0.2,0.3,0.3,0.4,0.3c0.1,0,0.3-0.1,0.4-0.3l6.4-9.1
		c0.1-0.2,0.3-0.4,0.5-0.5c0.2-0.1,0.5-0.1,0.8-0.1h3.5c0.4,0,0.7,0.1,0.7,0.4c0,0.1-0.1,0.3-0.2,0.5l-8.9,11.9
		c-0.2,0.2-0.3,0.4-0.3,0.7c0,0.2,0.1,0.4,0.3,0.7l9.8,13.3C128.5,563.8,128.7,564.1,128.7,564.3z"/>
	<path fill="#010101" d="M141.7,540c-0.3,0-0.5,0.2-0.5,0.5v15.9c0,1.5,0.3,2.6,0.8,3.2c0.6,0.6,1.5,0.9,2.7,0.9h3.5
		c0.4,0,0.7,0.2,0.7,0.7v2.3c0,0.5-0.3,0.8-0.8,0.9c-1.2,0.2-3,0.3-5.5,0.3c-2.4,0-4.2-0.6-5.3-1.7c-1.2-1.1-1.7-2.8-1.7-5.1v-17.2
		c0-0.4-0.2-0.7-0.5-0.7h-4.1c-0.5,0-0.7-0.2-0.7-0.7v-2.9c0-0.4,0.2-0.6,0.7-0.6h4.4c0.3,0,0.4-0.2,0.4-0.5l0.7-8.5
		c0.1-0.5,0.3-0.8,0.7-0.8h3.8c0.5,0,0.7,0.3,0.7,0.9v8.4c0,0.3,0.2,0.5,0.5,0.5h6.5c0.4,0,0.7,0.2,0.7,0.6v2.9
		c0,0.4-0.3,0.7-0.8,0.7H141.7z"/>
	<path fill="#010101" d="M164.3,525.1c0-0.5,0.3-0.8,0.8-0.8H195c0.5,0,0.8,0.3,0.8,0.8v3.5c0,0.4-0.3,0.7-0.8,0.7h-10.8
		c-0.2,0-0.4,0-0.4,0.1c-0.1,0.1-0.1,0.2-0.1,0.4v34.2c0,0.5-0.3,0.8-0.8,0.8h-5.1c-0.5,0-0.7-0.3-0.7-0.8v-34.1
		c0-0.3,0-0.4-0.1-0.5c-0.1-0.1-0.2-0.1-0.5-0.1h-11.4c-0.5,0-0.8-0.2-0.8-0.7V525.1z"/>
	<path fill="#010101" d="M201.4,556.7c0.8,1.3,1.8,2.4,3.2,3.2c1.3,0.8,2.8,1.2,4.4,1.2c1.7,0,3.2-0.3,4.5-1
		c1.3-0.7,2.5-1.8,3.6-3.2c0.1-0.1,0.2-0.2,0.4-0.2c0.2,0,0.3,0,0.4,0.1l2.8,1.3c0.2,0.1,0.3,0.3,0.3,0.4c0,0.1-0.1,0.3-0.2,0.4
		c-1.5,2.2-3.3,3.9-5.2,4.9c-2,1-4.3,1.5-7.1,1.5c-2.7,0-5.2-0.6-7.3-1.8c-2.1-1.2-3.8-3-5-5.2s-1.8-4.8-1.8-7.6
		c0-3,0.6-5.7,1.8-8.1c1.2-2.3,2.9-4.1,5-5.4s4.5-1.9,7.1-1.9c2.7,0,5,0.6,7.1,1.8c2,1.2,3.6,2.9,4.7,5.1c1.1,2.2,1.7,4.9,1.7,8v0.2
		c0,0.3,0,0.6-0.1,0.7c-0.1,0.2-0.3,0.2-0.7,0.2h-20.1c-0.4,0-0.5,0.3-0.5,0.9C200.2,553.9,200.6,555.4,201.4,556.7z M215,548
		c0.4,0,0.6-0.1,0.7-0.2c0.1-0.1,0.2-0.3,0.2-0.6c0-1.4-0.3-2.7-0.9-4c-0.6-1.2-1.5-2.2-2.6-3c-1.1-0.7-2.5-1.1-4.1-1.1
		c-1.6,0-3.1,0.4-4.3,1.2c-1.2,0.8-2.2,1.9-2.9,3.2c-0.7,1.3-1,2.8-1,4.3L215,548z"/>
	<path fill="#010101" d="M251.5,564.3c0,0.3-0.3,0.4-0.8,0.4H246c-0.6,0-1.1-0.2-1.4-0.6l-7-9.7c-0.2-0.3-0.4-0.5-0.5-0.5
		c-0.1,0-0.3,0.2-0.5,0.5l-7.3,9.7c-0.2,0.4-0.7,0.6-1.3,0.6h-3.2c-0.6,0-0.9-0.2-0.9-0.5c0-0.3,0.1-0.6,0.4-1l9.6-12.2
		c0.2-0.3,0.3-0.5,0.3-0.7c0-0.2-0.1-0.5-0.3-0.7l-9.2-12.6c-0.1-0.2-0.2-0.3-0.2-0.4c0-0.4,0.3-0.7,0.8-0.7h4.5
		c0.3,0,0.6,0,0.8,0.1c0.2,0.1,0.4,0.2,0.5,0.5l6.6,9.1c0.1,0.2,0.3,0.3,0.4,0.3c0.1,0,0.3-0.1,0.4-0.3l6.4-9.1
		c0.1-0.2,0.3-0.4,0.5-0.5c0.2-0.1,0.5-0.1,0.8-0.1h3.5c0.4,0,0.7,0.1,0.7,0.4c0,0.1-0.1,0.3-0.2,0.5l-8.9,11.9
		c-0.2,0.2-0.3,0.4-0.3,0.7c0,0.2,0.1,0.4,0.3,0.7l9.8,13.3C251.4,563.8,251.5,564.1,251.5,564.3z"/>
	<path fill="#010101" d="M264.5,540c-0.3,0-0.5,0.2-0.5,0.5v15.9c0,1.5,0.3,2.6,0.8,3.2c0.6,0.6,1.5,0.9,2.7,0.9h3.5
		c0.4,0,0.7,0.2,0.7,0.7v2.3c0,0.5-0.3,0.8-0.8,0.9c-1.2,0.2-3,0.3-5.5,0.3c-2.4,0-4.2-0.6-5.3-1.7c-1.2-1.1-1.7-2.8-1.7-5.1v-17.2
		c0-0.4-0.2-0.7-0.5-0.7h-4.1c-0.5,0-0.7-0.2-0.7-0.7v-2.9c0-0.4,0.2-0.6,0.7-0.6h4.4c0.3,0,0.4-0.2,0.4-0.5l0.7-8.5
		c0.1-0.5,0.3-0.8,0.7-0.8h3.8c0.5,0,0.7,0.3,0.7,0.9v8.4c0,0.3,0.2,0.5,0.5,0.5h6.5c0.4,0,0.7,0.2,0.7,0.6v2.9
		c0,0.4-0.3,0.7-0.8,0.7H264.5z"/>
	<path fill="#010101" d="M287.2,525.1c0-0.5,0.3-0.8,0.8-0.8h29.9c0.5,0,0.8,0.3,0.8,0.8v3.5c0,0.4-0.3,0.7-0.8,0.7h-10.8
		c-0.2,0-0.4,0-0.4,0.1c-0.1,0.1-0.1,0.2-0.1,0.4v34.2c0,0.5-0.3,0.8-0.8,0.8h-5.1c-0.5,0-0.7-0.3-0.7-0.8v-34.1
		c0-0.3,0-0.4-0.1-0.5c-0.1-0.1-0.2-0.1-0.5-0.1h-11.4c-0.5,0-0.8-0.2-0.8-0.7V525.1z"/>
	<path fill="#010101" d="M324.2,556.7c0.8,1.3,1.8,2.4,3.2,3.2c1.3,0.8,2.8,1.2,4.4,1.2c1.7,0,3.2-0.3,4.5-1
		c1.3-0.7,2.5-1.8,3.6-3.2c0.1-0.1,0.2-0.2,0.4-0.2c0.2,0,0.3,0,0.4,0.1l2.8,1.3c0.2,0.1,0.3,0.3,0.3,0.4c0,0.1-0.1,0.3-0.2,0.4
		c-1.5,2.2-3.3,3.9-5.2,4.9c-2,1-4.3,1.5-7.1,1.5c-2.7,0-5.1-0.6-7.3-1.8c-2.1-1.2-3.8-3-5-5.2c-1.2-2.2-1.8-4.8-1.8-7.6
		c0-3,0.6-5.7,1.8-8.1c1.2-2.3,2.9-4.1,5-5.4c2.1-1.3,4.5-1.9,7.1-1.9c2.7,0,5,0.6,7.1,1.8c2,1.2,3.6,2.9,4.7,5.1s1.7,4.9,1.7,8v0.2
		c0,0.3,0,0.6-0.1,0.7c-0.1,0.2-0.3,0.2-0.7,0.2h-20.1c-0.4,0-0.5,0.3-0.5,0.9C323,553.9,323.4,555.4,324.2,556.7z M337.9,548
		c0.4,0,0.6-0.1,0.7-0.2c0.1-0.1,0.2-0.3,0.2-0.6c0-1.4-0.3-2.7-0.9-4c-0.6-1.2-1.5-2.2-2.6-3c-1.1-0.7-2.5-1.1-4.1-1.1
		c-1.6,0-3.1,0.4-4.3,1.2c-1.2,0.8-2.2,1.9-2.9,3.2c-0.7,1.3-1,2.8-1,4.3L337.9,548z"/>
	<path fill="#010101" d="M374.4,564.3c0,0.3-0.3,0.4-0.8,0.4h-4.8c-0.6,0-1.1-0.2-1.4-0.6l-7-9.7c-0.2-0.3-0.4-0.5-0.5-0.5
		c-0.1,0-0.3,0.2-0.5,0.5l-7.3,9.7c-0.2,0.4-0.7,0.6-1.3,0.6h-3.2c-0.6,0-0.9-0.2-0.9-0.5c0-0.3,0.1-0.6,0.4-1l9.6-12.2
		c0.2-0.3,0.3-0.5,0.3-0.7c0-0.2-0.1-0.5-0.3-0.7l-9.2-12.6c-0.1-0.2-0.2-0.3-0.2-0.4c0-0.4,0.3-0.7,0.8-0.7h4.5
		c0.3,0,0.6,0,0.8,0.1c0.2,0.1,0.4,0.2,0.5,0.5l6.6,9.1c0.1,0.2,0.3,0.3,0.4,0.3c0.1,0,0.3-0.1,0.4-0.3l6.4-9.1
		c0.1-0.2,0.3-0.4,0.5-0.5c0.2-0.1,0.5-0.1,0.8-0.1h3.5c0.4,0,0.7,0.1,0.7,0.4c0,0.1-0.1,0.3-0.2,0.5l-8.9,11.9
		c-0.2,0.2-0.3,0.4-0.3,0.7c0,0.2,0.1,0.4,0.3,0.7l9.8,13.3C374.2,563.8,374.4,564.1,374.4,564.3z"/>
	<path fill="#010101" d="M387.4,540c-0.3,0-0.5,0.2-0.5,0.5v15.9c0,1.5,0.3,2.6,0.8,3.2c0.6,0.6,1.5,0.9,2.7,0.9h3.5
		c0.4,0,0.7,0.2,0.7,0.7v2.3c0,0.5-0.3,0.8-0.8,0.9c-1.2,0.2-3,0.3-5.5,0.3c-2.4,0-4.2-0.6-5.3-1.7c-1.2-1.1-1.7-2.8-1.7-5.1v-17.2
		c0-0.4-0.2-0.7-0.5-0.7h-4.1c-0.5,0-0.7-0.2-0.7-0.7v-2.9c0-0.4,0.2-0.6,0.7-0.6h4.4c0.3,0,0.4-0.2,0.4-0.5l0.7-8.5
		c0.1-0.5,0.3-0.8,0.7-0.8h3.8c0.5,0,0.7,0.3,0.7,0.9v8.4c0,0.3,0.2,0.5,0.5,0.5h6.5c0.4,0,0.7,0.2,0.7,0.6v2.9
		c0,0.4-0.3,0.7-0.8,0.7H387.4z"/>
	<path fill="#010101" d="M410,525.1c0-0.5,0.3-0.8,0.8-0.8h29.9c0.5,0,0.8,0.3,0.8,0.8v3.5c0,0.4-0.3,0.7-0.8,0.7h-10.8
		c-0.2,0-0.4,0-0.4,0.1c-0.1,0.1-0.1,0.2-0.1,0.4v34.2c0,0.5-0.3,0.8-0.8,0.8h-5.1c-0.5,0-0.7-0.3-0.7-0.8v-34.1
		c0-0.3,0-0.4-0.1-0.5c-0.1-0.1-0.2-0.1-0.5-0.1h-11.4c-0.5,0-0.8-0.2-0.8-0.7V525.1z"/>
	<path fill="#010101" d="M447,556.7c0.8,1.3,1.8,2.4,3.2,3.2c1.3,0.8,2.8,1.2,4.4,1.2c1.7,0,3.2-0.3,4.5-1c1.3-0.7,2.5-1.8,3.6-3.2
		c0.1-0.1,0.2-0.2,0.4-0.2c0.2,0,0.3,0,0.4,0.1l2.8,1.3c0.2,0.1,0.3,0.3,0.3,0.4c0,0.1-0.1,0.3-0.2,0.4c-1.5,2.2-3.3,3.9-5.2,4.9
		c-2,1-4.3,1.5-7.1,1.5c-2.7,0-5.1-0.6-7.3-1.8c-2.1-1.2-3.8-3-5-5.2c-1.2-2.2-1.8-4.8-1.8-7.6c0-3,0.6-5.7,1.8-8.1
		c1.2-2.3,2.9-4.1,5-5.4c2.1-1.3,4.5-1.9,7.1-1.9c2.7,0,5,0.6,7.1,1.8c2,1.2,3.6,2.9,4.7,5.1s1.7,4.9,1.7,8v0.2c0,0.3,0,0.6-0.1,0.7
		c-0.1,0.2-0.3,0.2-0.7,0.2h-20.1c-0.4,0-0.5,0.3-0.5,0.9C445.9,553.9,446.2,555.4,447,556.7z M460.7,548c0.4,0,0.6-0.1,0.7-0.2
		c0.1-0.1,0.2-0.3,0.2-0.6c0-1.4-0.3-2.7-0.9-4c-0.6-1.2-1.5-2.2-2.6-3c-1.1-0.7-2.5-1.1-4.1-1.1c-1.6,0-3.1,0.4-4.3,1.2
		c-1.2,0.8-2.2,1.9-2.9,3.2c-0.7,1.3-1,2.8-1,4.3L460.7,548z"/>
	<path fill="#010101" d="M497.2,564.3c0,0.3-0.3,0.4-0.8,0.4h-4.8c-0.6,0-1.1-0.2-1.4-0.6l-7-9.7c-0.2-0.3-0.4-0.5-0.5-0.5
		c-0.1,0-0.3,0.2-0.5,0.5l-7.3,9.7c-0.2,0.4-0.7,0.6-1.3,0.6h-3.2c-0.6,0-0.9-0.2-0.9-0.5c0-0.3,0.1-0.6,0.4-1l9.6-12.2
		c0.2-0.3,0.3-0.5,0.3-0.7c0-0.2-0.1-0.5-0.3-0.7l-9.2-12.6c-0.1-0.2-0.2-0.3-0.2-0.4c0-0.4,0.3-0.7,0.8-0.7h4.5
		c0.3,0,0.6,0,0.8,0.1c0.2,0.1,0.4,0.2,0.5,0.5l6.6,9.1c0.1,0.2,0.3,0.3,0.4,0.3c0.1,0,0.3-0.1,0.4-0.3l6.4-9.1
		c0.1-0.2,0.3-0.4,0.5-0.5c0.2-0.1,0.5-0.1,0.8-0.1h3.5c0.4,0,0.7,0.1,0.7,0.4c0,0.1-0.1,0.3-0.2,0.5l-8.9,11.9
		c-0.2,0.2-0.3,0.4-0.3,0.7c0,0.2,0.1,0.4,0.3,0.7l9.8,13.3C497,563.8,497.2,564.1,497.2,564.3z"/>
	<path fill="#010101" d="M510.2,540c-0.3,0-0.5,0.2-0.5,0.5v15.9c0,1.5,0.3,2.6,0.8,3.2c0.6,0.6,1.5,0.9,2.7,0.9h3.5
		c0.4,0,0.7,0.2,0.7,0.7v2.3c0,0.5-0.3,0.8-0.8,0.9c-1.2,0.2-3,0.3-5.5,0.3c-2.4,0-4.2-0.6-5.3-1.7c-1.2-1.1-1.7-2.8-1.7-5.1v-17.2
		c0-0.4-0.2-0.7-0.5-0.7h-4.1c-0.5,0-0.7-0.2-0.7-0.7v-2.9c0-0.4,0.2-0.6,0.7-0.6h4.4c0.3,0,0.4-0.2,0.4-0.5l0.7-8.5
		c0.1-0.5,0.3-0.8,0.7-0.8h3.8c0.5,0,0.7,0.3,0.7,0.9v8.4c0,0.3,0.2,0.5,0.5,0.5h6.5c0.4,0,0.7,0.2,0.7,0.6v2.9
		c0,0.4-0.3,0.7-0.8,0.7H510.2z"/>
</g>
</svg>
